<svg xmlns="http://www.w3.org/2000/svg" xmlns:xlink="http://www.w3.org/1999/xlink" width="280" height="130" viewBox="0 0 280 130">
  <defs>
    <clipPath id="clip-path">
      <rect id="Rectangle_63793" data-name="Rectangle 63793" width="280" height="130" transform="translate(67 83)" fill="#fff" stroke="#707070" stroke-width="1"/>
    </clipPath>
  </defs>
  <g id="Mask_Group_8209" data-name="Mask Group 8209" transform="translate(-67 -83)" clip-path="url(#clip-path)">
    <g id="Group_22819" data-name="Group 22819" transform="translate(22.065 -486.2)">
      <path id="Path_81595" data-name="Path 81595" d="M213.065,678.779c-.058.626-1.1.227-.352.542.2.085-.227.383-.163.543l-.857.659a2.582,2.582,0,0,1-.806.476,1.336,1.336,0,0,1-.291-.825,30.442,30.442,0,0,0-1.411-5.363c-.136-.354-.313-.688-.483-1.026-.085-.17-.24-.335-.1-.548a11.505,11.505,0,0,0,2.283.241c.219.058,1.042-.421,1.118-.241.37.871.715,2.744,1.06,3.626.063.162-.61.013-.738.182-.391.078,1.446,1.724,1.118,1.951C213.186,679.176,212.992,678.44,213.065,678.779Z" transform="translate(-57.044 -47.919)" fill="#fee187"/>
      <path id="Path_81503" data-name="Path 81503" d="M232.4,634.047a63.92,63.92,0,0,0,5.334-5.386c2.485-2.622,5.052-5.157,8.375-6.737a22.356,22.356,0,0,1,6.829-2.02,26.3,26.3,0,0,1,3.985-.223,30.542,30.542,0,0,1,7.794,1.253,36.323,36.323,0,0,1,10.308,5.167,26.182,26.182,0,0,0,4.993,2.8c.212.085.443.152.526.439.03.1.054-.072.1-.1a1.806,1.806,0,0,1-.327,2.358,6.675,6.675,0,0,0-1.172,1.009,1.715,1.715,0,0,0-.188,2.1,1.441,1.441,0,0,0,1.759.548c-.011-.069-.074-.082-.122-.111-.3-.183-.579-.39-.54-.786s.356-.549.678-.677c.685-.272,1.415-.408,2.094-.7.144-.061.31-.11.418.083.2.9-.011,1.827.181,2.732a4.648,4.648,0,0,1,.18,1.055,13.686,13.686,0,0,0-.761,3.117,6.31,6.31,0,0,0,.495,2.852,1.9,1.9,0,0,1,.264.963c-.536.608-1.041,1.252-1.6,1.829a49.238,49.238,0,0,1-6.416,5.976,10.866,10.866,0,0,1-2.78,1.49,4.377,4.377,0,0,1-2.472-.081,26.548,26.548,0,0,1-6.588-2.769c-.456-.245-.89-.528-1.363-.743-.956-1.234-2.55-1.355-3.748-2.193a1.53,1.53,0,0,0,.485,1c.105.138.287.27.194.464s-.306.152-.482.168a5.587,5.587,0,0,1-2.113-.322,16.045,16.045,0,0,0-1.635-.353c-.116-.022-.257-.033-.305.106-.036.1.061.18.13.251.027.029.061.052.088.081.115.124.344.229.232.424s-.325.068-.5.047c-.079-.01-.155-.042-.234-.049-.3-.027-.665-.2-.847.178a.987.987,0,0,0,.332,1.158,5.705,5.705,0,0,0,.9.463c.157.07.4.133.358.335-.048.219-.3.114-.47.141-.042.007-.075.022-.129.091a1.35,1.35,0,0,0,.769.47,8.055,8.055,0,0,0,4.4.464,1.128,1.128,0,0,1,.705.005c.32.232.2.644.381.932.017.525.2,1.067-.15,1.556-.367-.154-.264-.5-.292-.773-.031-.308-.145-.487-.482-.458a48.109,48.109,0,0,1-5.125-.015c-3.323-.074-6.648-.02-9.972-.024-.475,0-.885.046-.93.655-.017.235-.056.578-.323.569-.351-.012-.229-.387-.274-.621a26.765,26.765,0,0,0-.936-6.962,1.158,1.158,0,0,1-.066-.527c.119-.326.412-.26.658-.276a9.031,9.031,0,0,0,4.61-1.461,4.019,4.019,0,0,0,.725-.617c.1-.112.188-.233-.046-.3-.383-.113-.216-.3-.05-.464.125-.127.269-.237.395-.364a1.181,1.181,0,0,0,.157-1.443.263.263,0,0,0-.316-.092c-.176.037-.341.109-.511.163-.185.059-.394.216-.563.068s.041-.317.1-.473c.136-.373-.112-.313-.3-.25a8.409,8.409,0,0,0-1.716.832,6.265,6.265,0,0,1-1.756.732c-.188.046-.412.155-.563-.025s.02-.372.1-.545c.155-.329.4-.636.279-1.051-.305.044-.43.268-.6.427a5.688,5.688,0,0,1-1.075.942,2.228,2.228,0,0,0-1.276,1.822,6.94,6.94,0,0,1-4.628,2.968,1,1,0,0,1-.752-.011.775.775,0,0,1-.084-.576A5.185,5.185,0,0,0,233.1,641.8q-.485-.4-.966-.8a2.273,2.273,0,0,1-.541-3.237,4.192,4.192,0,0,0,.748-3.5A.252.252,0,0,1,232.4,634.047Z" transform="translate(-68.366 -21.083)" fill="#bfd7fb"/>
      <path id="Path_81504" data-name="Path 81504" d="M184.478,633.645a3.381,3.381,0,0,1-.392,3.338c-.144.214-.286.432-.409.658a1.99,1.99,0,0,0,.263,2.427,6.543,6.543,0,0,0,1.005.928,5.622,5.622,0,0,1,2.368,5.895c-.147.271-.413.191-.636.2a4.962,4.962,0,0,1-3.336-1.383,17.1,17.1,0,0,1-3.254-3.852,1.219,1.219,0,0,1-.185-.436,14.689,14.689,0,0,0,.067-2.08,6.144,6.144,0,0,0-1.062-2.879,17.824,17.824,0,0,0-1.355-1.888,1.04,1.04,0,0,1-.337-.615,7.279,7.279,0,0,1,.559-1.113,11.377,11.377,0,0,0,.272-6.391.38.38,0,0,0-.151-.248c-.734,0-1.463.1-2.2.061a7.7,7.7,0,0,1-4.514-1.492,4.733,4.733,0,0,1-1.014-1.155,6.05,6.05,0,0,1-2.145,4.022.924.924,0,0,1-.946.181,2.735,2.735,0,0,0-.883-.121,1.126,1.126,0,0,0-1.09,1.721,3.494,3.494,0,0,0,.994,1.25c.166.138.369.244.429.478-.033.2-.2.233-.349.279a5.247,5.247,0,0,0-3.34,6.489c.1.386.266.752.332,1.147a1.256,1.256,0,0,1-.08.662,33.41,33.41,0,0,0-3.523,2.121,26.773,26.773,0,0,0-6.984,6.969,16.447,16.447,0,0,0-2.7,8.915,16.017,16.017,0,0,0,.357,4.155,10.988,10.988,0,0,0,1.58,3.591c.134.2.389.39.151.68a1.954,1.954,0,0,1-1.53-.286c-4.11-.887-8.1-2.075-11.486-4.715a11.638,11.638,0,0,1-2.71-3c-1.448-2.3-.88-6.522,2.2-8.1.655-.336,1.332-.627,2-.937.379-.176.765-.337,1.142-.519a2.21,2.21,0,0,0,1.4-2.283c-.071-1.034-.1-2.073-.208-3.1a5.63,5.63,0,0,1,5.834-6.177,12.122,12.122,0,0,0,3.219-.139,3.914,3.914,0,0,0,3.339-3.974c-.022-2.3.816-3.465,2.584-4.017a9.336,9.336,0,0,1,1.891-.271,4.715,4.715,0,0,0,2.8-1.192,6.813,6.813,0,0,0,2.079-2.325,16.113,16.113,0,0,1,5.215-4.917,9.454,9.454,0,0,1,4.778-1.323c1.372-.01,2.737.093,4.1.2a10.255,10.255,0,0,1,3.742,4.846,3.209,3.209,0,0,1-.227,3.242,8.67,8.67,0,0,0-1.057,2,1.343,1.343,0,0,0,.514,1.83c.373.3.768.57,1.154.852A6.183,6.183,0,0,1,184.478,633.645Z" transform="translate(-20.442 -20.681)" fill="#2d3945"/>
      <path id="Path_81505" data-name="Path 81505" d="M394.387,706.682a49.488,49.488,0,0,0,6.43,7.959,51.441,51.441,0,0,1,6.005,7.16,18.172,18.172,0,0,1,2.741,6.688,18.859,18.859,0,0,1-.243,7.623c-.142.633-.458,1.227-.606,1.869a.356.356,0,0,1-.383.31c-.06,0-.12,0-.18,0-3.029-.006-6.059.273-9.084.1-2.253-.131-4.507.034-6.75-.121-1.994-.138-3.982-.055-5.973-.084-.526-.007-.712-.194-.707-.7.014-1.337.021-2.675,0-4.011-.009-.443.119-.589.572-.581a41.764,41.764,0,0,0,4.3-.112h-4.989c.133-.387.476-.294.748-.3,1.117-.02,2.235,0,3.352-.01.817,0,.858-.042.86-.832,0-1.656.007-3.312,0-4.968,0-.7-.067-.747-.75-.765a5.058,5.058,0,0,1-1.013-.05c-.451-.178-.093-.371-.012-.561a5.025,5.025,0,0,1,.866-.388,7.99,7.99,0,0,0,2.413-.973,26.457,26.457,0,0,1,2.64-1.094c.605-.23.669-.341.433-.913-1.37-3.317-2.708-6.648-4.045-9.978a2,2,0,0,0-.515-.926.846.846,0,0,1-.467-.582c-.359-1.192-.844-2.339-1.279-3.5.045-.862.077-1.724.075-2.587.024-.156.027-.364.2-.4.2-.044.215.189.29.313a1.406,1.406,0,0,0,1.245.686c.636.02,1.272.017,1.907,0a1.192,1.192,0,0,1,1.159.681A2.754,2.754,0,0,0,394.387,706.682Z" transform="translate(-145.711 -63.304)" fill="#e0ecfd"/>
      <path id="Path_81506" data-name="Path 81506" d="M363.22,616.422a8.59,8.59,0,0,1,3.515-5.429,7.9,7.9,0,0,1,6.447-.862c3.827.938,5.939,3.489,6.793,7.23.454,1.99.579,4.024.835,6.041a10.847,10.847,0,0,0,.583,2.62,4.193,4.193,0,0,0,5.9,2.2,2.373,2.373,0,0,0,.642-3.8,2.63,2.63,0,0,1,1.489.772,5.957,5.957,0,0,1,1.558,4.036,8.321,8.321,0,0,1-5.325,8.276,14.5,14.5,0,0,1-6.5,1.044,9.382,9.382,0,0,1-6.149-2.2,10.807,10.807,0,0,1-4.209-7.743,3.775,3.775,0,0,0-.083-.409,23.543,23.543,0,0,1,.133-4.057,17.657,17.657,0,0,0,.158-4.761,3.321,3.321,0,0,0-1.076-1.886,1.753,1.753,0,0,0-2.3-.209,3.271,3.271,0,0,1-.612.371c-.058.012-.136.036-.172,0C364.359,617.178,363.741,616.862,363.22,616.422Z" transform="translate(-134.538 -16.145)" fill="#2d3945"/>
      <path id="Path_81507" data-name="Path 81507" d="M152.818,802.007c-.379.008-.757.023-1.136.023q-18.4,0-36.805.016c-.566,0-.74-.152-.781-.7a15.348,15.348,0,0,1-.082-3.516,2.512,2.512,0,0,1,.06-.353c.086-.281.123-.638.48-.69.312-.045.49.23.65.458a10.231,10.231,0,0,1,1.2,2.6,1.27,1.27,0,0,0,.275.52c-.027-.489-.062-.977-.081-1.465a20.859,20.859,0,0,1,.536-6.29,3.606,3.606,0,0,1,.5-1.144.769.769,0,0,1,1.343-.1,4.169,4.169,0,0,1,.864,1.491c.259.7.48,1.417.739,2.195a36.753,36.753,0,0,1,2.06-3.946,13.254,13.254,0,0,1,2.064-2.7c.461-.437.961-1,1.655-.709.672.279.618,1.014.624,1.627a19.286,19.286,0,0,1-1.27,6.176l-.116.352a8.266,8.266,0,0,1,1.277-1.118c.773-.441,1.306-.218,1.5.651a4.74,4.74,0,0,1,.069,1.629c.443-.338.821-.714,1.38-.586a2.68,2.68,0,0,1,1.348,1.025c-.073-.882-.14-1.613-.194-2.346a16.484,16.484,0,0,1,.17-4.409,3.418,3.418,0,0,1,.467-1.282.776.776,0,0,1,1.269-.213,3.921,3.921,0,0,1,1,1.252,20.059,20.059,0,0,1,1.808,4.731c.02.073.046.145.127.394.132-1.089.23-2,.356-2.915a27.516,27.516,0,0,1,1.172-5.3,8.631,8.631,0,0,1,.525-1.2c.164-.31.344-.7.773-.647s.518.461.637.791a7.706,7.706,0,0,1,.359,1.753,38.217,38.217,0,0,1,.091,5.655l1.25-2.056a1.207,1.207,0,0,1,.329-.557,1.477,1.477,0,0,1,1.369-.563c.577.133.73.642.866,1.117a7.727,7.727,0,0,1,.175,2.9,14.219,14.219,0,0,1-.317,2.433,8.015,8.015,0,0,1,1.719-2.09c.91-.14,1.238.5.833,1.608a23.09,23.09,0,0,1,2.972-5.52,3.14,3.14,0,0,1,.606-.658c.631-.491,1.163-.279,1.253.521a5.68,5.68,0,0,1-.186,1.658,30.089,30.089,0,0,1-.857,3.164c.831-.035,1.139.509,1.33,1.179a5.034,5.034,0,0,1,.2,1.177,1.829,1.829,0,0,0,.426,1.151,16.268,16.268,0,0,1,1.057,2.59A.281.281,0,0,1,152.818,802.007Z" transform="translate(-9.643 -104.166)" fill="#ff802a"/>
      <path id="Path_81508" data-name="Path 81508" d="M372.1,796.062l1.2,3.586c.354.414.3.966.506,1.455.331-.457.336-1.09.81-1.455a17.044,17.044,0,0,1,1.477-2.524c.181-.236.087-.449.04-.677a13.053,13.053,0,0,1-.322-4.627,5.609,5.609,0,0,1,.157-.76c.447-1.493,1.478-1.828,2.729-.877a8.791,8.791,0,0,1,2.061,2.464c.07.114.083.273.292.354a32.509,32.509,0,0,1-.228-3.3,11.067,11.067,0,0,1,.259-2.911c.141-.518.257-1.127.881-1.24.584-.105.934.375,1.239.8a16.364,16.364,0,0,1,2.185,4.889,41.373,41.373,0,0,1,1.355,6.231,39.486,39.486,0,0,1,1.427-3.941,12.28,12.28,0,0,1,1.68-2.952c.274-.326.559-.781,1.066-.621.526.165.533.715.562,1.16a15.283,15.283,0,0,1-.782,5.6,3.235,3.235,0,0,0,.41,3.2c.091-.942.164-1.89.278-2.832a13.871,13.871,0,0,1,1.049-4.216c.2-.442.4-1.021,1-.977s.717.636.879,1.095a10.771,10.771,0,0,1,.528,2.934,31.7,31.7,0,0,1-.046,4.676c.358-.512.664-.97.992-1.411a4.337,4.337,0,0,1,.916-.939c.633-.46,1.117-.282,1.237.49a6.7,6.7,0,0,1-.072,2.084c-.2,1.236-.184,1.238-1.44,1.238q-16.49,0-32.98.01a1.97,1.97,0,0,1-1.526-.491,8.694,8.694,0,0,1-2.661-2.412,1.758,1.758,0,0,1-.227-.419c-.16-.455.01-.736.5-.792a3.677,3.677,0,0,1,1.753.268,19.641,19.641,0,0,1,2.4,1.054,16.513,16.513,0,0,1,1.723.967c.028.025.072-.112.024-.048-.013.019-.027.018-.045.005-.328-.225-.383-.624-.592-.925a19.651,19.651,0,0,1-2-5.791c-.01-.079-.034-.157-.037-.236a1.5,1.5,0,0,1,.527-1.5c.534-.338,1.033-.049,1.5.241a11.022,11.022,0,0,1,2.965,2.994c.06.068.119.138.178.208a24.178,24.178,0,0,1,1.627,2.311c0-.681,0-1.315,0-1.949a3.654,3.654,0,0,1,.15-1.057c.108-.368.216-.753.676-.808.436-.052.686.241.909.561A4.268,4.268,0,0,1,372.1,796.062Z" transform="translate(-132.408 -104.184)" fill="#ff802a"/>
      <path id="Path_81509" data-name="Path 81509" d="M152.751,713.055l1.6.234c.113,0,.16.08.2.171a1.076,1.076,0,0,1,.042.411,4.373,4.373,0,0,0,1.709,3.738c.2.178.475.312.476.643a9.071,9.071,0,0,0-.293,3.9,1.246,1.246,0,0,1-.234.722c-.556.929-.555.93.513,1.25a1.012,1.012,0,0,1,.475.23,12.65,12.65,0,0,0,5.085,4.706c.2.107.611.177.3.581a5.652,5.652,0,0,1-2.2.085c-.937-.087-1.871-.085-2.808-.087q-3.47-.007-6.941,0c-.793,0-.836.047-.837.855q-.005,2.842,0,5.684c0,.832.027.854.889.857.838,0,1.675,0,2.513,0a1.228,1.228,0,0,1,.8.16.122.122,0,0,1-.01.19c-1.355.04-2.712.006-4.067.021,1.177,0,2.353,0,3.53,0a1.143,1.143,0,0,1,.635.1,4.546,4.546,0,0,1-.074,2.714c-.58.188-.343.654-.294,1,.1.731-.2,1.148-.937,1.153a9.94,9.94,0,0,0-1.845.121c.661,0,1.322.009,1.983,0,.309-.006.593.031.605.4.013.41-.286.446-.619.445q-5.477-.009-10.953,0c-.521,0-.976-.339-1.512-.27-.139.017-.158-.144-.178-.266a16.538,16.538,0,0,1,1.046-8.929,38.529,38.529,0,0,1,5.042-8.561,33.648,33.648,0,0,0,4.2-7.267,29.761,29.761,0,0,0,1.567-4.493C152.242,713.192,152.54,713.2,152.751,713.055Z" transform="translate(-22.749 -67.868)" fill="#e1edfd"/>
      <path id="Path_81510" data-name="Path 81510" d="M370.2,645.546a13.841,13.841,0,0,0,.92,3.629,10.659,10.659,0,0,0,8.733,6.571c.216.031.43.067.645.1l-.263.085a4.182,4.182,0,0,1,1.086,2.414,20.776,20.776,0,0,1,.741,5.023c.035.809.079,1.619.1,2.43.153.43-.043.89.113,1.32a19.3,19.3,0,0,0,2.282,9.7,1.346,1.346,0,0,1-.872-.906.992.992,0,0,0-1.074-.66c-.655.042-1.315.022-1.973.007a1.432,1.432,0,0,1-1.434-1.184l-.055.381c-.212-.032-.222-.206-.242-.361a17.408,17.408,0,0,0-3.956-8.392,45.32,45.32,0,0,0-8.355-8.091c-.282-.216-.6-.405-.695-.79,0-.344.28-.459.5-.611.722-.493,1.44-.987,2.114-1.55a3.765,3.765,0,0,0,.92-5.338,10.441,10.441,0,0,0-3.172-3.583.534.534,0,0,1-.258-.316,1.229,1.229,0,0,1,.413-1.086c1.136.476,2.358.725,3.463,1.286C370.035,645.7,370.106,645.6,370.2,645.546Z" transform="translate(-135.882 -33.438)" fill="#cbdefc"/>
      <path id="Path_81511" data-name="Path 81511" d="M346.487,634.381l-.392,1.108a1.07,1.07,0,0,1-.273.812,10.126,10.126,0,0,1-1.158,1.553,12.988,12.988,0,0,1-3.834,2.8,6.143,6.143,0,0,0-.756.477c-.159.108-.317.267-.533.1a2.132,2.132,0,0,1,.157-1.059c.086-.224.156-.453.236-.679.132-.353.374-.414.715-.3a2.529,2.529,0,0,0,2.963-1.767,1.033,1.033,0,0,0-1.036-1.411,1.677,1.677,0,0,0-.586.095,1.316,1.316,0,0,1-1.432-.308,1.463,1.463,0,0,1-.43-1.138,10,10,0,0,1,.106-2.083.966.966,0,0,0-.172-.79,5.2,5.2,0,0,0-6.548-1.589,3.845,3.845,0,0,0-1.937,2.862c-.13.751-.038,1.573-.625,2.2a.4.4,0,0,1-.258.107,4.214,4.214,0,0,1-1.438.551,4.342,4.342,0,0,0-.683.213c-.345.158-.9.207-.856.684.048.493.522.7,1.017.749a1.458,1.458,0,0,1-1.735.2,1.669,1.669,0,0,1-.919-1.726,2.538,2.538,0,0,1,1.209-1.831c1.111-.745,1.285-1.236.913-2.569a5.431,5.431,0,0,1,3.266-5.594,12.467,12.467,0,0,1,10.319-.823,1.185,1.185,0,0,1,.77.269,8.5,8.5,0,0,1,2.925,3.081,9.024,9.024,0,0,1,1.311,4.7A1.481,1.481,0,0,1,346.487,634.381Z" transform="translate(-115.924 -23.483)" fill="#2d3945"/>
      <path id="Path_81512" data-name="Path 81512" d="M255.205,815.162c-10.951,0-21.9.021-32.852-.04-1.949-.011-3.9-.015-5.854-.1a.232.232,0,0,1-.031-.223,16.5,16.5,0,0,0,1.1-2.525c.016-.053.088-.074.141-.1a11.487,11.487,0,0,1,2.2-.071c1.055-.016,2.11-.01,3.165,0,.306-.05.523.143.76.283a11.794,11.794,0,0,0,2.937,1.428c.991.262,1.321-.057,1.111-1.047-.049-.23-.166-.474.161-.6A26.139,26.139,0,0,1,230.9,812c2.759-.065,5.521-.026,8.283-.021a2.049,2.049,0,0,1,.414.035c.467.095.554.528.755.857.551.9.4.9,1.483.722a19.638,19.638,0,0,0,5.621-1.488,1.016,1.016,0,0,1,.345-.093c1.67-.079,3.34-.024,5.009-.034,1.63-.01,3.26,0,4.89,0a2.152,2.152,0,0,1,.938.113c.28.183.187.351-.031.5q-.466.323-.946.628a9.768,9.768,0,0,0-2.027,1.661C255.514,815,255.426,815.188,255.205,815.162Z" transform="translate(-61.005 -117.42)" fill="#fdc9b3"/>
      <path id="Path_81513" data-name="Path 81513" d="M380.781,783.813a11.494,11.494,0,0,0-1.039-1.862c-.193-.236-.387-.484-.731-.409-.323.07-.384.38-.463.641a9.357,9.357,0,0,0-.178,2.6c0,.269,0,.537,0,.9l-1.914-2.736a2.17,2.17,0,0,1-.155-.936q0-9.932,0-19.863c0-.952.1-1.047,1.073-1.052.917-.005,1.835-.019,2.752.01.252.008.588-.068.675.324q0,11.041,0,22.082C380.806,783.615,380.79,783.714,380.781,783.813Z" transform="translate(-141.091 -91.935)" fill="#666"/>
      <path id="Path_81514" data-name="Path 81514" d="M204.872,804.053a4.891,4.891,0,0,1-.816,2.18c-.1.191-.2.38-.3.569a.624.624,0,0,1-.494.269q-5.912-.025-11.825-.031l-.126-.107a8.239,8.239,0,0,1-.278-3.093,14.527,14.527,0,0,1,.45-3.845,3.4,3.4,0,0,1,.444-1.04.854.854,0,0,1,1.491-.115,5.39,5.39,0,0,1,1.006,2.017,2.866,2.866,0,0,0,.252.729c.474-1.041,1.023-2,1.577-2.958a16.3,16.3,0,0,1,1.578-2.175,3.049,3.049,0,0,1,.768-.66,1.033,1.033,0,0,1,1.717.829,8.1,8.1,0,0,1-.17,2.5,18.918,18.918,0,0,1-.869,3.165c.473-.449.893-.95,1.58-.76a.988.988,0,0,1,.677.966,9.7,9.7,0,0,1-.433,3.817,13.441,13.441,0,0,1,2.488-2.232,2.065,2.065,0,0,1,.674-.329C204.533,803.687,204.817,803.657,204.872,804.053Z" transform="translate(-48.259 -109.199)" fill="#ff802a"/>
      <path id="Path_81515" data-name="Path 81515" d="M168.035,764.3q0-1.376,0-2.753a.085.085,0,0,1-.035-.084c.007-.031.014-.046.023-.046l.039.011c.129-.292.4-.3.654-.306q1.481-.029,2.962,0a.673.673,0,0,1,.668.3,1.7,1.7,0,0,1,.095.706q0,9.9,0,19.8a1.459,1.459,0,0,1-.176.865,17.077,17.077,0,0,0-1.939,2.393c.1-.9.21-1.791.3-2.688a8.3,8.3,0,0,0-.16-3.074c-.327-1.177-1-1.344-1.89-.488-.171.165-.336.335-.5.5q-.01-6.757-.021-13.516C168.052,765.374,168.041,764.836,168.035,764.3Z" transform="translate(-36.73 -91.942)" fill="#666"/>
      <path id="Path_81516" data-name="Path 81516" d="M205.153,614.752a2.974,2.974,0,0,1-1.594.063c-4.929-.754-8.614,1.343-11.6,5.037-.6.741-1.112,1.553-1.676,2.323a1.809,1.809,0,0,1-1.307.944.7.7,0,0,1-.513-.766c-.008-.47.006-.939.009-1.409a3.729,3.729,0,0,1,.2-1.645,11.3,11.3,0,0,1,5.913-7.445,13.855,13.855,0,0,1,4.013-1.513,3.971,3.971,0,0,1,1.365-.046,12.46,12.46,0,0,1,2.845.578,3.934,3.934,0,0,1,2.469,2.409A1.426,1.426,0,0,1,205.153,614.752Z" transform="translate(-46.97 -16.364)" fill="#fe3334"/>
      <path id="Path_81517" data-name="Path 81517" d="M379.263,754.474c-.177-.193-.41-.121-.621-.122-1-.007-2,.032-2.991-.017-.572-.027-.736.133-.733.718.021,6.162.014,12.324.013,18.486,0,.817-.01,1.635-.016,2.452l-.1-.131a2.553,2.553,0,0,1-.2-1.223q0-9.376,0-18.751c0-.14,0-.279,0-.418-.006-.882-.006-.882-.882-.949a1.8,1.8,0,0,1-.235-.032c-.455-.148-.251-.367-.035-.54.655-.523,1.247-1.113,1.85-1.694a16.125,16.125,0,0,0,2.593-3.488,33.861,33.861,0,0,1,3.84-1.566.987.987,0,0,1,.609.18c.578.009,1.156.035,1.732.021.341-.008.443.115.441.451-.013,2.013-.018,4.026,0,6.038,0,.428-.176.484-.533.48-1.4-.015-2.79-.008-4.186,0-.154,0-.322-.045-.452.089A.31.31,0,0,0,379.263,754.474Z" transform="translate(-139.552 -84.975)" fill="#989898"/>
      <path id="Path_81518" data-name="Path 81518" d="M198.463,608.646a14.864,14.864,0,0,0-3.464.815,12.287,12.287,0,0,0-7,6.239,11.361,11.361,0,0,0-.908,3.2,2.7,2.7,0,0,1-.117.4,6.876,6.876,0,0,1-1.5-5.276,7.967,7.967,0,0,1,1.326-3.957.621.621,0,0,0,.047-.222,5.6,5.6,0,0,1,2.394-2.061.273.273,0,0,1,.283.014,8.941,8.941,0,0,1,8.6.6A3.728,3.728,0,0,1,198.463,608.646Z" transform="translate(-45.472 -14.715)" fill="#fe6d66"/>
      <path id="Path_81519" data-name="Path 81519" d="M325.98,815.146c-3.127.007-6.256-.062-9.379.042-2.746.092-5.49.048-8.235.073-.036-.046-.1-.086-.1-.145a7.808,7.808,0,0,1,.222-2.768,1.513,1.513,0,0,1,.869-.143c3.779,0,7.559-.049,11.337.022,1.469.027,2.94.079,4.41.1a1.2,1.2,0,0,1,.579.114,2.6,2.6,0,0,1,.333,1.512C326.061,814.343,326.268,814.76,325.98,815.146Z" transform="translate(-106.995 -117.535)" fill="#fdc9b3"/>
      <path id="Path_81520" data-name="Path 81520" d="M301.234,808.6q-.067,1.437-.133,2.874a30.028,30.028,0,0,1-5.007,1.382,7.451,7.451,0,0,1-1.191.091c-1.131-.011-1.383-.4-.972-1.458a13.288,13.288,0,0,1,3.593-2.871,8.535,8.535,0,0,0,.168-2.467c.019-.326-.058-.69.315-.892.927-.27,1.885-.4,2.824-.626.3,0,.578.036.578.426,0,1.055.026,2.11-.018,3.164A.565.565,0,0,1,301.234,808.6Z" transform="translate(-99.73 -113.751)" fill="#252b39"/>
      <path id="Path_81521" data-name="Path 81521" d="M343.367,809.872l-.26-2.636a1.64,1.64,0,0,1,.136-1.592c.2-.412.643-.39,1.046.013a7.875,7.875,0,0,1,.986,1.489,6.72,6.72,0,0,1,.676,1.7c.021.076.135-.019.061.012-.027.011-.043,0-.049-.028a4.827,4.827,0,0,1,.144-1.641,25.256,25.256,0,0,1,.98-3.936,6.345,6.345,0,0,1,.446-1.042c.164-.273.336-.586.715-.544s.487.384.553.7a11,11,0,0,1,.234,2.072,14.3,14.3,0,0,1-.167,2.957,9.556,9.556,0,0,1,.965-1.365c.213-.24.461-.5.814-.366.382.151.4.5.325.86a.819.819,0,0,0,.022.237,10.11,10.11,0,0,1-.382,2.376,1.154,1.154,0,0,1-.312.62c-.073.3-.253.383-.561.381-1.949-.015-3.9-.008-5.849-.008C343.67,810.127,343.432,810.178,343.367,809.872Z" transform="translate(-124.382 -112.261)" fill="#ff802a"/>
      <path id="Path_81522" data-name="Path 81522" d="M188.412,605.436a8.868,8.868,0,0,0-2.677,2.047,2.616,2.616,0,1,1,2.539-3.578A7.412,7.412,0,0,1,188.412,605.436Z" transform="translate(-44.356 -12.357)" fill="#fe3334"/>
      <path id="Path_81523" data-name="Path 81523" d="M361.067,627.757a8.507,8.507,0,0,0-3.492-3.27,2.558,2.558,0,0,1,2.817-1.461,3.149,3.149,0,0,1,1.668,1.208c.591.495.453,1.179.36,1.779A2.052,2.052,0,0,1,361.067,627.757Z" transform="translate(-131.709 -22.749)" fill="#ff802a"/>
      <path id="Path_81524" data-name="Path 81524" d="M357.671,814.86a28.47,28.47,0,0,0,.585-3.005c.22.111.133.545.513.487a18.191,18.191,0,0,0,2.5,2.411C360.065,814.709,358.869,814.809,357.671,814.86Z" transform="translate(-131.757 -117.368)" fill="#fdc9b3"/>
      <path id="Path_81525" data-name="Path 81525" d="M389,813.813l-.859,2.059-.457-2.058Z" transform="translate(-146.793 -118.349)" fill="#fdcbb6"/>
      <path id="Path_81526" data-name="Path 81526" d="M398.583,688.67c-.245-.422-.06-.881-.113-1.32C398.714,687.772,398.531,688.231,398.583,688.67Z" transform="translate(-152.189 -54.989)" fill="#e0ecfd"/>
      <path id="Path_81527" data-name="Path 81527" d="M242.071,688.04c.04.209-.052.434.077.646.279-.166.151-.432.167-.649.035-.47.217-.712.743-.709,3.548.015,7.1-.049,10.645.038,1.29.031,2.582.063,3.873.082a9.848,9.848,0,0,0,1.181-.113c.336-.036.452.111.455.447s-.108.677.09.991a2.658,2.658,0,0,1,.286,1.431,17.175,17.175,0,0,0,1.721,6.117,9.415,9.415,0,0,0,9.929,5.374,4.629,4.629,0,0,1,1.753-.139c.29.557.021,1.1-.048,1.644-.256.319-.621.225-.944.218a27.57,27.57,0,0,0-6.765.594A11.455,11.455,0,0,0,259.349,707a10.115,10.115,0,0,0-1.71,2.507c-1.171,2.266-2.186,4.605-3.2,6.943-.134.31-.243.644-.635.734a17.6,17.6,0,0,1-2.79-.072c-1.508-.017-3.016,0-4.524-.009-.31,0-.646.046-.882-.241a1.117,1.117,0,0,1-.023-.76,25.592,25.592,0,0,0,.378-2.965,5.562,5.562,0,0,0-1.464-4.291,13.4,13.4,0,0,0-3.754-2.833,42.487,42.487,0,0,0-10.475-3.667,17.717,17.717,0,0,1-1.8-.429c-.341-.237-.147-.489,0-.712a14.181,14.181,0,0,0,1.418-2.918,7.547,7.547,0,0,0,.435-1.609c.038-.253.072-.52.342-.658a10.708,10.708,0,0,1,1.636.428,8.583,8.583,0,0,0,5.79-1.148c.171-.1.338-.211.514-.3a7.536,7.536,0,0,0,3.062-5.19,6.673,6.673,0,0,0,.148-1.241C241.814,688.364,241.759,688.1,242.071,688.04Z" transform="translate(-66.929 -54.974)" fill="#dfeafd"/>
      <path id="Path_81528" data-name="Path 81528" d="M344.045,648.845a11.213,11.213,0,0,0,1.518-2.286,9.836,9.836,0,0,1,3.913,4.613,3.732,3.732,0,0,1-1.188,4.6,24.037,24.037,0,0,1-2.412,1.754c-.159.1-.378.164-.4.409a31.12,31.12,0,0,1-3.667,1.7c-.28.075-.542.2-.824.276a23.63,23.63,0,0,1-5.708.945.7.7,0,0,0-.776.626,63.462,63.462,0,0,0-1.152,7.08,85.919,85.919,0,0,0-.345,11.109c.013,1.372.154,2.743.27,4.113a1.094,1.094,0,0,1-.05.7c-.173.168-.376.094-.564.057-2.345-.469-4.7-.885-7.075-1.167a.684.684,0,0,1-.486-.194.952.952,0,0,1-.06-.7,85.7,85.7,0,0,1,3.474-14.873,64.8,64.8,0,0,1,3.047-7.4.935.935,0,0,0-.087-1.14,4.8,4.8,0,0,1-.945-1.778c-.113-.668-.462-1.256-.639-1.908a7.435,7.435,0,0,1,.627-5.02c.217.147.234.4.325.615a3.877,3.877,0,0,0,1.665,2.083.792.792,0,0,1,.455.768,2.169,2.169,0,0,0,.091.7c.073.538.026,1.088.147,1.622a10.642,10.642,0,0,0,.107,1.543c.041.36.157.455.494.293a46.712,46.712,0,0,0,5.757-3.131,12.118,12.118,0,0,0,3.12-2.666,5.877,5.877,0,0,0,1.14-2.6A2.427,2.427,0,0,1,344.045,648.845Z" transform="translate(-115.391 -34.553)" fill="#fecb99"/>
      <path id="Path_81529" data-name="Path 81529" d="M313.152,668.068a22.223,22.223,0,0,0,1.452,2.176c.142.146-.029.3-.1.431a68.13,68.13,0,0,0-3.78,9.475,73.25,73.25,0,0,0-2.367,10.087c-.209,1.213-.409,2.428-.613,3.642a.7.7,0,0,1-.555.157c-1-.075-2.009-.1-3-.264a.44.44,0,0,1-.3-.167l.168-1.65a8.78,8.78,0,0,1,.264-2.414,57.011,57.011,0,0,1,4.434-14.151c.127-.29.311-.55.435-.842-.768,1.662-1.781,3.2-2.5,4.887a.81.81,0,0,1-.309.427c-.5-.034-.13-.452-.312-.672-1.165.642-2.34,1.283-3.505,1.946-1.641.934-3.208,1.988-4.869,2.891a36.778,36.778,0,0,0-4.476,2.691.827.827,0,0,1-.9.079,13.989,13.989,0,0,1-1.663-5.06c-.136-.862-.183-1.738-.27-2.608q0-.841.006-1.681a.979.979,0,0,1,0-.725c.371-.859.845-1.669,1.188-2.541a.846.846,0,0,1,.5-.563c.24-.007.4.162.587.269a28.012,28.012,0,0,0,7.539,3.259,4.582,4.582,0,0,0,3.4-.468,22.5,22.5,0,0,0,4.447-3.411,43.745,43.745,0,0,0,4.212-4.405A3.169,3.169,0,0,1,313.152,668.068Z" transform="translate(-98.014 -45.329)" fill="#ff802a"/>
      <path id="Path_81530" data-name="Path 81530" d="M236.489,676.421c-.185.912-.189,1.85-.459,2.75a7.28,7.28,0,0,1-2.891,4.313,1.225,1.225,0,0,1-.614-.351c-.7-.737-1.587-1.239-2.327-1.931-1.026-.96-2.193-1.761-3.23-2.712a2.53,2.53,0,0,0-1.236-.436,18.87,18.87,0,0,1-.685-2.473c-.613-2.2-1.532-4.279-2.279-6.426-.021-.077-.091.03-.025-.015.008-.006.02.01.033.049a48.085,48.085,0,0,1,2.271,10.381,17.324,17.324,0,0,1,.131,4.527.735.735,0,0,1-.073.345c-.312.526-.214,1.161-.455,1.706-.087.2-.159.4-.238.6-1.157-.529-2.33-1.02-3.53-1.443-.554-.2-.639-.119-.771.444-.1.408.014.876-.307,1.236-.25-.155-.219-.387-.238-.6.1-1.189-2.087-5.276-1.793-6.448.065-.107.129-.35.244-.37.714-.124,1.162,1.294,1.221.668.087-.93.467-.149.651-1.067.1-.246-1.167-.854-1.194-1.117.041-.806,1.3-.844,1.473-1.633.041-.111-1.028-.623-.931-.686.553-.355-.207-.864-.3-1.465-.074-.535,1.04-.638.6-.787-.712-.241.761-1.1,0-1.082a2.516,2.516,0,0,1-1.111-.087.663.663,0,0,1-.253-.392,29.1,29.1,0,0,0-.99-2.868.6.6,0,0,1-.045-.349c.078-.23.286-.317.477-.418a6.011,6.011,0,0,0,2.936-3.579c.07-.21,0-.54.364-.58a17.787,17.787,0,0,0,3.366,4.082,4.807,4.807,0,0,0,3.931,1.354,7.243,7.243,0,0,0,5.261-2.98c.486.2.689.682,1.006,1.043a4.865,4.865,0,0,1,.936,1.27c.242,1.134.56,2.249.739,3.4A30.648,30.648,0,0,1,236.489,676.421Z" transform="translate(-61.348 -43.355)" fill="#fee087"/>
      <path id="Path_81531" data-name="Path 81531" d="M338.085,649.253c.03-.841-.48-1.258-1.111-1.738a3.678,3.678,0,0,1-1.277-2.363,12.823,12.823,0,0,1-.356-3.924l.128-.124a1.1,1.1,0,0,0,.65-.866c.164-.553.273-1.121.459-1.67a3.3,3.3,0,0,1,3.046-2.383,4.992,4.992,0,0,1,3.747,1.072,1.69,1.69,0,0,1,.722,1.858,1.914,1.914,0,0,0,1.182,2.484,1.289,1.289,0,0,0,1.336.208,1.342,1.342,0,0,1,1.6.287,1.393,1.393,0,0,1,.03,1.676,2.537,2.537,0,0,1-3.174,1.315c-.335-.1-.25.231-.389.326a8.566,8.566,0,0,1-4.964,3.022.981.981,0,0,1-.235.019C338.833,648.4,338.2,648.374,338.085,649.253Z" transform="translate(-120.57 -29.341)" fill="#f2b098"/>
      <path id="Path_81532" data-name="Path 81532" d="M251.825,667.911a21.484,21.484,0,0,1-1.942-2.313,1.622,1.622,0,0,1,.812-1.56,10.267,10.267,0,0,0,1.907-1.623c.115-.122.229-.332.437-.223.193.1.123.322.106.49a3.716,3.716,0,0,1-.615,1.351,5.659,5.659,0,0,0,2.173-.758,11.112,11.112,0,0,1,1.817-.9c.205-.075.46-.215.615-.031.2.233-.068.428-.191.619-.042.065-.1.121-.237.282.467-.161.82-.285,1.175-.4.4-.133.584-.005.507.428-.01.057-.072.139-.053.162.755.919-.287,1.12-.636,1.594a1.034,1.034,0,0,1-.2.157c.1.155.212.068.3.041a.219.219,0,0,1,.3.11c.049.106-.017.2-.083.268a5.006,5.006,0,0,1-.887.795A9.2,9.2,0,0,1,251.825,667.911Z" transform="translate(-77.752 -42.37)" fill="#f2b098"/>
      <path id="Path_81533" data-name="Path 81533" d="M284.761,676.813l-1.541,3.119a1.481,1.481,0,0,1-.376-.013,11.167,11.167,0,0,1-3.2.135,9.387,9.387,0,0,1-2.553-.782c-.2-.105-.522-.218-.421-.491s.405-.14.634-.085a1.032,1.032,0,0,0,.239-.018,10.01,10.01,0,0,1-1.386-.689c-.285-.213-.66-.393-.309-.841.012-.015.03-.033.03-.05.008-.225-.375-.467-.008-.669a1.483,1.483,0,0,1,1.1-.005c.167.041.337.066.515.1-.01-.043-.008-.07-.019-.081-.252-.233-.787-.4-.653-.743.171-.434.663-.126,1.014-.084,1.14.137,2.2.714,3.386.6.112-.011.224-.013.444-.024a5.6,5.6,0,0,1-.858-1.073c-.1-.2-.221-.443-.052-.612s.366.054.515.151a7.662,7.662,0,0,0,1.974.967A3.19,3.19,0,0,1,284.761,676.813Z" transform="translate(-90.695 -48.524)" fill="#f2b098"/>
      <path id="Path_81534" data-name="Path 81534" d="M290.007,685.313c.129-.108.257-.162.376.013-.152.216-.1.474-.147.711C289.855,685.892,290.234,685.507,290.007,685.313Z" transform="translate(-97.857 -53.919)" fill="#dfeafd"/>
      <path id="Path_81535" data-name="Path 81535" d="M166.365,687.165a.577.577,0,0,0-.079-.089c-3.587-4.585-2.762-12.559.28-17.168a27.381,27.381,0,0,1,9.9-8.894c.234-.128.462-.327.769-.268a3.326,3.326,0,0,1,.143,1.221c.076,1.084.343,2.14.42,3.221a76.5,76.5,0,0,1-.594,7.7,1.22,1.22,0,0,1-.171.561c-.38.285-.548-.063-.7-.278a7.8,7.8,0,0,1-1.638-4.291,3.358,3.358,0,0,1-.018-.354c-.045.595-.147,1.183-.136,1.782a5.907,5.907,0,0,0,.229,1.769,6.833,6.833,0,0,0,.794,1.669,7.529,7.529,0,0,0,1.165,1.358,5,5,0,0,0,3.175,1.645,13.641,13.641,0,0,0,5.471-.463,14.907,14.907,0,0,0,1.812-.578,1,1,0,0,1,.635-.1c.314.137.38.436.458.719a6.38,6.38,0,0,1,.138,2.35c-.017.128-.072.248-.086.377-.91,4.7-3.3,8.3-7.733,10.38a15.626,15.626,0,0,1-8.62,1,10.34,10.34,0,0,1-3.713-1.42A5.746,5.746,0,0,1,166.365,687.165Z" transform="translate(-34.688 -41.656)" fill="#fee287"/>
      <path id="Path_81536" data-name="Path 81536" d="M207.109,653.8a9.209,9.209,0,0,1-1.1,2.419,6.2,6.2,0,0,1-2.608,2.11.746.746,0,0,1-.288.223,21.685,21.685,0,0,1-3.968-.053c-.217-.032-.42-.118-.635-.159a15.148,15.148,0,0,1-7.376-4.966,4.13,4.13,0,0,1-1.011-1.994,6.224,6.224,0,0,1-.26-4.418,5.147,5.147,0,0,1,3.732-3.452,10.5,10.5,0,0,1,2.095.591c.457.157.188.647.127,1-.182.2-.442.118-.664.176a.91.91,0,0,0-.764,1.225,3,3,0,0,0,.734,1.33,6.736,6.736,0,0,0,4.606,2.309c.436-.006.873.029,1.306-.016,1.436-.149,1.914-1.212,1.1-2.4-.147-.217-.455-.346-.41-.68.016-.012.031-.033.048-.034a6.972,6.972,0,0,0,2.578-.664,14.94,14.94,0,0,1,2.125,2.947,5.938,5.938,0,0,1,.669,4.094C207.125,653.517,207.122,653.657,207.109,653.8Z" transform="translate(-47.535 -33.023)" fill="#2a4e96"/>
      <path id="Path_81537" data-name="Path 81537" d="M190.584,659.277A12.5,12.5,0,0,0,196.2,664.9a21.664,21.664,0,0,0,2.727,1.191,1.108,1.108,0,0,1,.391.512,30.866,30.866,0,0,1,1.946,7.827.8.8,0,0,1-.036.353.431.431,0,0,1-.118.161,18.16,18.16,0,0,1-6.185,1.36,5.792,5.792,0,0,1-1.831-.158,3.441,3.441,0,0,1-.273-1.562c-.189-1.857-.391-3.711-.763-5.543a22.525,22.525,0,0,0-.72-2.766c-.206-.607-.241-1.241-.394-1.855-.1-1.062-.392-2.1-.424-3.167a4.351,4.351,0,0,1,.027-1.239Z" transform="translate(-47.997 -40.925)" fill="#233862"/>
      <path id="Path_81538" data-name="Path 81538" d="M198.022,639.279a3.78,3.78,0,0,1,.059-.413c.108-.427-.037-.6-.49-.616a3.806,3.806,0,0,1-1.675-.591,4.524,4.524,0,0,1-1.473-1.542c-.616-1.2-.023-2.138,1.326-2.079a2.144,2.144,0,0,1,.7.122.822.822,0,0,0,.885-.115,2.974,2.974,0,0,0,2.465-1.91c.121-.39.326-.366.611-.113,1.721,1.527,3.729,1.6,5.837,1.117.437-.1.732-.476,1.134-.652.167-.01.188.117.21.234a13.774,13.774,0,0,1,.092,5.578,5.221,5.221,0,0,1-1.031,2.195,3.336,3.336,0,0,1-2.588.786,2.053,2.053,0,0,1-1.523-.142,10.434,10.434,0,0,1-3.105-1.48,3.629,3.629,0,0,1-.853-.778,6.232,6.232,0,0,0,3.1,2.956.846.846,0,0,1,.485.867c-.047.581.163,1.187-.17,1.738a6.652,6.652,0,0,1-4.68-2.368A10.408,10.408,0,0,1,198.022,639.279Z" transform="translate(-49.857 -27.176)" fill="#f2b098"/>
      <path id="Path_81539" data-name="Path 81539" d="M210.575,630.274a2.419,2.419,0,0,1-1.936,1.007,6.94,6.94,0,0,1-4.632-.882,8.324,8.324,0,0,1-.785-.73,2.8,2.8,0,0,1-2.13,2.18.615.615,0,0,1-.564-.016,6.134,6.134,0,0,0,2.1-4.412,6.68,6.68,0,0,0,1.132,1.416,7.1,7.1,0,0,0,4.434,1.535A16.632,16.632,0,0,0,210.575,630.274Z" transform="translate(-53.027 -24.964)" fill="#da8e7f"/>
      <path id="Path_81540" data-name="Path 81540" d="M355.954,670.9a28.553,28.553,0,0,0,3.056-1.411.942.942,0,0,1,.618-.148c.914.95,2.035,1.651,3.024,2.512a37.979,37.979,0,0,1,7.922,8.947,16.491,16.491,0,0,1,2.235,6.174,16.284,16.284,0,0,1-.1,2.656,2.228,2.228,0,0,1-.133,1.053,4.879,4.879,0,0,1-4.878,3.379,15.2,15.2,0,0,1-5.147-.819,37.657,37.657,0,0,1-7.213-3.151c.145.194.352.375.525.585.116.14.323.266.171.5-.295.131-.494-.053-.7-.216-.139-.113-.24-.267-.385-.376-.452-.34-.723-.242-.843.306-.039.175-.031.359-.073.533-.093.388-.26.427-.493.091a14.9,14.9,0,0,1-.3-3.37c.084-.465-.2-1.069.5-1.3a2.348,2.348,0,0,1,1.478.214c-.161.641-.2,1.306-.278,1.813.185-.479.428-1.1.628-1.735.341-.842.7-1.678,1-2.534a1.076,1.076,0,0,1,1.19-.838c1.415-.022,1.4-.051.966-1.407a38.213,38.213,0,0,1-1.309-4.827,46.088,46.088,0,0,1,.582,4.677.62.62,0,0,1-.514.75c-.5.134-.994.29-1.49.44a2.438,2.438,0,0,1-1.357-2.075.792.792,0,0,0-.381.955,3.912,3.912,0,0,1,.227.861c.007.36-.2.485-.49.285a1.582,1.582,0,0,1-.7-.858,29.875,29.875,0,0,1,.494-4.081,40.272,40.272,0,0,1,1.736-6.819A1.508,1.508,0,0,1,355.954,670.9Z" transform="translate(-129.541 -45.964)" fill="#ff802a"/>
      <path id="Path_81541" data-name="Path 81541" d="M372.813,732.582l-3.851,1.564a1.889,1.889,0,0,1-.688.458c-2.465,1.007-4.941,1.989-7.4,3-.251.1-.5.258-.8.13-.6-1.149-1.006-2.378-1.5-3.57-1.077-2.591-2.094-5.206-3.185-7.792-.085-.231-.151-.457.159-.579,3.178.536,6.345,1.128,9.517,1.7a11.828,11.828,0,0,1,2.39.49,1.018,1.018,0,0,1,.379.517,2.3,2.3,0,0,0,.42.645c.25.259.53.547.923.387.436-.177.471-.6.449-1.01-.021-.378-.258-.709-.255-1.095a8.478,8.478,0,0,1,1.185-2.062c1.451-2.308,2.924-4.6,4.382-6.905a1.572,1.572,0,0,1,.606-.639,28.086,28.086,0,0,1,1.184,2.793c1.175,2.851,2.326,5.712,3.5,8.562.138.334-.006.532-.246.6-1.084.305-2.082.825-3.131,1.215a13.7,13.7,0,0,1-2.388.969l-.851.345A.955.955,0,0,1,372.813,732.582Z" transform="translate(-130.578 -70.257)" fill="#4c5f7e"/>
      <path id="Path_81542" data-name="Path 81542" d="M365.726,721.179c-2.642-.476-5.289-.931-7.925-1.437a32.5,32.5,0,0,1-4.056-.8c-.419-1.774-.726-3.569-.992-5.372a4.075,4.075,0,0,0-.089-.465c-.418-2.517-.662-5.053-.864-7.594a2.779,2.779,0,0,1,.1-1.414c.257-.213.478-.093.694.074.11.45-.068.916.074,1.364a20.564,20.564,0,0,0,.274,3.444,9.009,9.009,0,0,1,.48,2.686c.3,1.969.623,3.932.988,5.889.157.841.177.851.947.54,2.437-.983,4.876-1.962,7.3-2.965.185-.076.372-.144.562-.2,2.909-1.179,5.814-2.368,8.728-3.534.7-.28.688-.315.477-1.067a12.365,12.365,0,0,1-.719-2.324l.251-1.008a25.9,25.9,0,0,1,1.341,3.536c.072.225.123.465.453.36l-6.109,9.575c-.361.011-.446-.349-.68-.51-.219-.151-.426-.314-.705-.2a.68.68,0,0,0-.371.632C365.859,720.657,365.96,720.954,365.726,721.179Z" transform="translate(-128.795 -63.323)" fill="#2d3945"/>
      <path id="Path_81543" data-name="Path 81543" d="M396.231,752.2v4.467h-.058v-4.491Z" transform="translate(-151.047 -87.469)" fill="#fcfcfc"/>
      <path id="Path_81544" data-name="Path 81544" d="M393.685,745.184a23.251,23.251,0,0,1,2.388-.969c-.149.38-.542.366-.834.468C394.726,744.86,394.277,745.252,393.685,745.184Z" transform="translate(-149.801 -83.479)" fill="#fcfcfc"/>
      <path id="Path_81545" data-name="Path 81545" d="M390.381,747.123l.8-.275c.105.234-.251.173-.227.355C390.758,747.2,390.551,747.3,390.381,747.123Z" transform="translate(-148.146 -84.799)" fill="#fcfcfc"/>
      <path id="Path_81546" data-name="Path 81546" d="M364.574,628.169a2.8,2.8,0,0,0,1.271-2.507,5.119,5.119,0,0,0-.278-1.016c1.65-1.4,3.28-.99,4.1,1.046a6.489,6.489,0,0,1,.274,2.893,55.728,55.728,0,0,0-.4,6.684c-.076.091.061.4-.236.26a33.434,33.434,0,0,0-3.322-1.2c-.135-.046-.166-.154-.2-.266A8.494,8.494,0,0,0,364.574,628.169Z" transform="translate(-135.216 -23.161)" fill="#fefefe"/>
      <path id="Path_81547" data-name="Path 81547" d="M176.54,782.778q0-10.227-.008-20.454c0-.3,0-.6,0-.9.1-.247.316-.278.537-.307a1.353,1.353,0,0,1,.179-.012c7.459,0,14.918-.034,22.376.017a1.306,1.306,0,0,1,.884.557c1.082,1.327,2.168,2.651,3.224,4a.985.985,0,0,1,.3.634c-.362,3.061-.859,6.1-1.3,9.152-.085.59-.148,1.185-.261,1.77a.66.66,0,0,0,.479.876,1.351,1.351,0,0,1,.668.374,4.083,4.083,0,0,1-.562,2.321.734.734,0,0,0-.472.551c-.311,1.128-.645,2.25-.978,3.373a.68.68,0,0,0,.294.864c.294.2.586.408.879.612.191.134.423.239.453.516a2.82,2.82,0,0,1-1.169.075c-1.483.01-2.965,0-4.447-.006-.152-.319-.4-.254-.645-.151-.2.083-.386.185-.578.278a3.514,3.514,0,0,1-1.755.173c-.344-.014-.472-.2-.464-.545a5.925,5.925,0,0,0-.031-1.306c-.247-.982-.739-1.169-1.53-.562-.293.225-.551.5-.9.813a22.1,22.1,0,0,0,1.152-4.532,4.965,4.965,0,0,0-.025-1.843c-.189-.745-.644-.928-1.294-.538a4.294,4.294,0,0,0-1.058.962,21.846,21.846,0,0,0-2.913,4.857l-.192.406c-.232-.683-.427-1.288-.644-1.885a3.732,3.732,0,0,0-.7-1.245c-.459-.51-.894-.48-1.256.107a6.067,6.067,0,0,0-.71,2.513c-.087.711-.106,1.431-.155,2.147-.1.828-.2.9-.944.608a1.751,1.751,0,0,1-.508-1.279,4.521,4.521,0,0,0-.23-1.286c-.249-.832-.592-1-1.41-.737a22.431,22.431,0,0,0,1.12-4.451c.049-.469.208-1.084-.283-1.3-.508-.221-.838.345-1.122.7a24.7,24.7,0,0,0-3.056,5.45,1.456,1.456,0,0,1-.209.369c-.039-.418.1-.829.03-1.245C177.233,782.809,177.033,782.578,176.54,782.778Z" transform="translate(-41.003 -91.938)" fill="#f2f7fd"/>
      <path id="Path_81548" data-name="Path 81548" d="M189.453,812.493c.476.048.921.048.944-.608a26.677,26.677,0,0,0,.131,3.232c-.379-.59-.4-1.318-.754-1.921A7.72,7.72,0,0,1,189.453,812.493Z" transform="translate(-47.478 -117.383)" fill="#fdcab5"/>
      <path id="Path_81549" data-name="Path 81549" d="M333.545,786.917c-.464.167-.464.167-.513-.487-.021-.348.121-.826-.264-.967-.419-.154-.636.309-.86.591-.32.4-.6.839-.933,1.312a3.634,3.634,0,0,1-.013-1.192,16.842,16.842,0,0,0-.138-3.927,2.223,2.223,0,0,0-.178-.566c-.153-.322-.375-.333-.6-.065a3.938,3.938,0,0,0-.588,1.165,32.826,32.826,0,0,0-1.071,4.152.911.911,0,0,1-1.082-.006,8.4,8.4,0,0,0-.977-1.474c-.464-.472-.774-.391-.954.235a6.235,6.235,0,0,0-.119,1.232c-5.74-.142-11.48-.1-17.221-.123.011-1.107-.007-2.215.048-3.319.023-.465-.106-.6-.532-.492a2.221,2.221,0,0,1,.065-2.088,2.881,2.881,0,0,1,1.04-.244.53.53,0,0,0,.5-.552c.266-2.575.463-5.157.715-7.734.239-2.438.446-4.878.672-7.317.1-1.051.178-2.1.292-3.153.03-.275.018-.57.335-.712a2.252,2.252,0,0,1,.769-.077q7.652,0,15.3,0a3.187,3.187,0,0,1,.713.048c.339.085.444.369.542.654.245.715.471,1.436.72,2.15.273.782.492.944,1.322.885a16.7,16.7,0,0,0,5.266-1.207,21.163,21.163,0,0,0,3.747-2.082c.193-.131.369-.318.642-.235a9.445,9.445,0,0,0,1.014.008c.463-.044.617.1.61.59-.027,1.991-.011,3.983-.011,5.974q0,7.169,0,14.338c0,.2-.012.4-.018.6a17.236,17.236,0,0,0-2.359-2.521,4.052,4.052,0,0,0-1.16-.722c-.657-.235-1.035-.029-1.181.653a4.942,4.942,0,0,0,.223,2.236,25.554,25.554,0,0,0,1.749,4.56c-.074.361-.364.3-.6.288a1.909,1.909,0,0,1-.625-.148,20.763,20.763,0,0,0-3.146-1.232,4.3,4.3,0,0,0-.818-.129c-.642-.026-.791.221-.5.8C333.42,786.714,333.486,786.814,333.545,786.917Z" transform="translate(-106.533 -91.942)" fill="#ecf2fd"/>
      <path id="Path_81550" data-name="Path 81550" d="M368.471,813.2c.406-.08.847.142,1.229-.141l.608,1.144Z" transform="translate(-137.168 -117.973)" fill="#fdcbb4"/>
      <path id="Path_81551" data-name="Path 81551" d="M191.183,753.662c-.277.016-.554.045-.832.045q-10.881,0-21.761,0a1.351,1.351,0,0,0-.76.092c-.12-.143-.287-.116-.444-.117-1.077,0-2.155,0-3.231,0a.923.923,0,0,0-.517.113c-.191-.162-.42-.09-.632-.092-1.117-.007-2.233-.014-3.349,0-.351.005-.489-.085-.486-.465.015-2.292.02-4.585,0-6.878-.006-.483.227-.49.585-.487q5.978.061,11.957.1c.181,0,.4.118.549-.1a2.717,2.717,0,0,1,1.28.428c.858.378,1.718.747,2.608,1.041a68.626,68.626,0,0,0,9.013,2.326c.585.121,1.171.233,1.747.393a4.86,4.86,0,0,1,3.394,2.2c.22.3.5.566.726.869C191.14,753.29,191.314,753.433,191.183,753.662Z" transform="translate(-32.305 -84.314)" fill="#989898"/>
      <path id="Path_81552" data-name="Path 81552" d="M175.55,718.585a17.669,17.669,0,0,0,6.233-.228,17.374,17.374,0,0,0,2.495-.807c.282.053.475-.158.71-.244.195-.071.39-.249.557.039a27.221,27.221,0,0,1-.428,3.351c-.126.9-.315,1.794-.461,2.693-.264,1.122-.467,2.258-.839,3.353-.276.813-.6,1.04-1.4.982-2.655-.192-5.3-.44-7.939-.827a5.229,5.229,0,0,1-1.728-.42c-.381-.11-.759-.23-1.144-.328-.433-.111-.469-.343-.278-.709a6.05,6.05,0,0,0,.632-1.074,4.692,4.692,0,0,1,.787-1.258c.428-.647.839-1.3,1.254-1.961.425-.709.8-1.448,1.226-2.156C175.317,718.843,175.372,718.665,175.55,718.585Z" transform="translate(-38.343 -69.938)" fill="#2a4e96"/>
      <path id="Union_1" data-name="Union 1" d="M39.777,37.121q-1.657-2.141-3.322-4.279c-.1-.133-.156-.332-.372-.352A17.009,17.009,0,0,0,34.26,30.01c-1.27-1.664-2.562-3.309-3.847-4.96A1.25,1.25,0,0,0,30.272,25a7.448,7.448,0,0,1-1.745-2.225q-1.891-2.348-3.785-4.694a1.82,1.82,0,0,0-.272-.226A13.707,13.707,0,0,0,21.976,15c-.467-.407-1.165-.347-1.721-.6A71.992,71.992,0,0,1,9.413,11.677a.117.117,0,0,1-.063-.023,26.3,26.3,0,0,1-3.806-1.579,14.535,14.535,0,0,1-4.464-3.4A7.425,7.425,0,0,1,0,5.044c1.354.179,2.705.374,4.061.535S6.786,5.873,8.152,6c.474.045.95.03,1.429.1.877.125,1.087-.072,1.353-.941.291-.95.49-1.919.715-2.883a2.424,2.424,0,0,1,.128-.329.733.733,0,0,1,.545-.179c1.045-.038,2.064-.279,3.1-.414.479-.043.931-.229,1.411-.267.028,0,.054.009.078.015a.275.275,0,0,1,.2-.148C17.729.848,18.268.38,18.951.511c.14.216.286.339.5.07A1.034,1.034,0,0,1,19.727.36,2.041,2.041,0,0,1,21.579.122c2.735.886,5.4,1.949,8.03,3.082a1.311,1.311,0,0,1,.236.171A19.009,19.009,0,0,1,34.506,6.1a8.926,8.926,0,0,1,2.067,2.961,67.723,67.723,0,0,1,2.842,6.3c.51,1.326,1.008,2.658,1.542,3.976a4.6,4.6,0,0,1,.178.912c0,.008.036.017.053.013a.165.165,0,0,0,.05-.028c.3.046.337.311.416.527,1.1,2.988,2.139,6,3.137,9.024a2.376,2.376,0,0,1,.135.756,10.06,10.06,0,0,0-.793,1.187c-.277.573-.575.46-1.008.191a8.387,8.387,0,0,0-2.59-1.175,1.162,1.162,0,0,0-1.167.226c-.354.367-.153.791.021,1.168a11.388,11.388,0,0,0,1.663,2.386c.721.877,1.559,1.642,2.33,2.469l-1.2.522c-.111.04-.225.073-.334.12a3.269,3.269,0,0,1-1.067.36C40.453,38,40.254,37.739,39.777,37.121Z" transform="translate(134.407 651.496)" fill="#4b5d7d" stroke="rgba(0,0,0,0)" stroke-width="1"/>
      <path id="Path_81554" data-name="Path 81554" d="M174.32,716.839a19.708,19.708,0,0,1-1.475,2.661,2.6,2.6,0,0,1-1.78-1.019,5.493,5.493,0,0,1-2.194-3.007,6.116,6.116,0,0,1-.08-1.771,16.693,16.693,0,0,0,2.117,1.814A13.319,13.319,0,0,0,174.32,716.839Z" transform="translate(-37.114 -68.192)" fill="#fd9a6c"/>
      <path id="Path_81555" data-name="Path 81555" d="M172.844,723.278l1.78,1.019a19.094,19.094,0,0,1-2.115,3.121A6.476,6.476,0,0,1,172.844,723.278Z" transform="translate(-38.892 -72.99)" fill="#252a38"/>
      <path id="Path_81556" data-name="Path 81556" d="M158.892,746.2v7.46h-.058v-7.484Z" transform="translate(-32.138 -84.464)" fill="#fcfcfc"/>
      <path id="Path_81557" data-name="Path 81557" d="M148.656,771.586h3.289l0,.2a26.787,26.787,0,0,1-3.283-.016Z" transform="translate(-27.039 -97.193)" fill="#fcfcfc"/>
      <path id="Path_81558" data-name="Path 81558" d="M163.766,761.725l.012.13H159.5v-.13Z" transform="translate(-32.472 -92.252)" fill="#fcfcfc"/>
      <path id="Path_81559" data-name="Path 81559" d="M347.7,659.417a12.893,12.893,0,0,1-2.216,1.366c-1.248.686-2.543,1.289-3.816,1.932-.255.129-.435.111-.433-.219a14.861,14.861,0,0,1-.127-1.773.9.9,0,0,1,.383-.268,1.687,1.687,0,0,0,1.12-1.2.726.726,0,0,1,.455-.259,6.232,6.232,0,0,0,3.875-3.128c.079-.136.119-.332.262-.385.218-.081.207.072.149.221q-.1.523-.2,1.047A14.292,14.292,0,0,0,347.7,659.417Z" transform="translate(-123.451 -39.012)" fill="#f2b098"/>
      <path id="Path_81560" data-name="Path 81560" d="M345.405,640.741c-.476.116-1.106-.383-1.29-1.014a3.13,3.13,0,0,1,0-1.819.958.958,0,0,0-.261-.963,4.754,4.754,0,0,0-5.879-.816,3.694,3.694,0,0,0-1.279,2.153c-.141.454-.21.931-.367,1.378-.111.316-.244.692-.726.586a2.54,2.54,0,0,0,.51-1.563c.17-3.407,3.366-5.122,6.576-3.785a5.406,5.406,0,0,1,1.561.983,2.093,2.093,0,0,1,.869,2.264A3.029,3.029,0,0,0,345.405,640.741Z" transform="translate(-120.699 -28.482)" fill="#da8e7f"/>
      <path id="Path_81561" data-name="Path 81561" d="M353.733,657.253a3.539,3.539,0,0,1-.543-2.667,21.311,21.311,0,0,0,4.949-3.445,5.937,5.937,0,0,1-1.827,4.126A11.481,11.481,0,0,1,353.733,657.253Z" transform="translate(-129.484 -36.848)" fill="#c65000"/>
      <path id="Path_81562" data-name="Path 81562" d="M348.732,655.325c-.036-.042-.061-.21-.107-.114a6.528,6.528,0,0,1-4.566,3.694,1.181,1.181,0,0,1-.028-1.31,9.052,9.052,0,0,0,4.6-2.731,1.07,1.07,0,0,1,.306-.16Q348.836,655.015,348.732,655.325Z" transform="translate(-124.831 -38.633)" fill="#da8e7e"/>
      <path id="Path_81563" data-name="Path 81563" d="M283.077,789.929c-.287.038-.245.253-.248.451-.013.776-.036,1.552-.043,2.328,0,.238-.021.442-.308.488a1.493,1.493,0,0,0-.813-.115l-10.366-.012c.1-.828-.057-1.054-.945-1.352a13.992,13.992,0,0,0-3.057-.508,1.023,1.023,0,0,1-.924-.628,10.806,10.806,0,0,1-.518-1.142.645.645,0,0,0-.854-.51c-.444-.26-.453-.775-.674-1.165a4.559,4.559,0,0,1-.613-1.485c.156-.412.579-.435.9-.584.806-.373.814-.357.556-1.219.127-.572.621-.86,1-1.211a.908.908,0,0,0,.295-1.231,3.647,3.647,0,0,1,1.488-1.51,1.285,1.285,0,0,1,.7.524c.287.328.505.381.882.067.887-.74,1.677-1.582,2.521-2.365q2.425-2.248,4.819-4.533c.2-.19.39-.584.771-.222q1.224,5.484,2.814,10.872c.236.8.478,1.6.734,2.4.111.346.289.489.659.412a2.244,2.244,0,0,1,.892,0,.4.4,0,0,1,.307.258A2.647,2.647,0,0,1,283.077,789.929Z" transform="translate(-84.683 -98.325)" fill="#f7fafe"/>
      <path id="Path_81564" data-name="Path 81564" d="M248.85,801.535c-2.622,0-5.244-.007-7.866.015-1.347.01-2.695.076-4.042.116-.386-.038-.452-.41-.654-.637a18.909,18.909,0,0,0-1.356-1.5.97.97,0,0,1-.282-1.134c.093-.262.126-.546.235-.8a.9.9,0,0,0-.118-1,4.68,4.68,0,0,1,.846-2.081,5.47,5.47,0,0,1,2.031.627c.48.179.725.105.928-.363.466-1.076,1-2.123,1.476-3.195a2.717,2.717,0,0,1,.47-.826c.359-.1.487.2.648.4,1.178,1.495,2.334,3.007,3.5,4.509.493.632.484.635,1.19.305a1.285,1.285,0,0,1,.844-.22,10.27,10.27,0,0,1,1.359,2.642c-.416.4-.305.788-.038,1.233.243.405.48.82.688,1.246C248.812,801.078,248.995,801.276,248.85,801.535Z" transform="translate(-70.086 -106.788)" fill="#fbfcfe"/>
      <path id="Path_81565" data-name="Path 81565" d="M261.858,807.977c-.368-.714-.7-1.45-1.116-2.133-.29-.476-.32-.781.265-.97a6.161,6.161,0,0,1,2.383-1.11c.456-.284.739-.225.939.338a4.25,4.25,0,0,0,.844,1.689c.442.416,1.208.185,1.825.295a7.716,7.716,0,0,1,2.467.656c.622.343.676.666.245,1.232a16.381,16.381,0,0,1-5.476,1.547c-1.388.242-1.392.212-2.069-1.04C262.07,808.308,261.96,808.145,261.858,807.977Z" transform="translate(-83.094 -113.231)" fill="#2d3945"/>
      <path id="Path_81566" data-name="Path 81566" d="M230.651,801.5c.343.1.492.293.31.648a2.127,2.127,0,0,0,.682,3.009,7.148,7.148,0,0,1,1.123,1.384,5.771,5.771,0,0,1,.292.839.721.721,0,0,1-.779.933,3.554,3.554,0,0,1-1.434-.367,21.071,21.071,0,0,1-2.707-1.5c-.552-.39-1.1-.786-1.659-1.166a.44.44,0,0,1-.2-.589c.4-1.292.766-2.593,1.131-3.895.078-.278.181-.425.48-.269a.927.927,0,0,1,.743.127A8.66,8.66,0,0,1,230.651,801.5Z" transform="translate(-65.91 -111.66)" fill="#2d3945"/>
      <path id="Path_81567" data-name="Path 81567" d="M211.355,809.483a2.153,2.153,0,0,1,.09,1.164c-.014.386.094.536.5.517.554-.027,1.11,0,1.665,0a29.947,29.947,0,0,0-2.721,2.431A13.05,13.05,0,0,0,211.355,809.483Z" transform="translate(-58.215 -116.179)" fill="#fdc9b3"/>
      <path id="Path_81568" data-name="Path 81568" d="M359.4,754.147a19.955,19.955,0,0,1-6.316,3.144,14.945,14.945,0,0,1-3.771.522.819.819,0,0,1-.938-.668c-.3-1.007-.678-1.99-1.024-2.983a6,6,0,0,1-.6-1.591c-.368-1.293-.706-2.594-1.025-3.9a1.205,1.205,0,0,1-.044-.585c.2-.392.383-.127.535.03.782.8.846.787,1.847.256a19.48,19.48,0,0,1,3.883-1.583c.275.139.279.422.324.666.179.958.463,1.892.62,2.853a1.175,1.175,0,0,0,.687.9,5.6,5.6,0,0,1,1.689.976,23.237,23.237,0,0,0,2.993-1.153c1.961-.777,3.911-1.58,5.866-2.373a11.541,11.541,0,0,1-2.1,3.076A22.177,22.177,0,0,1,359.4,754.147Z" transform="translate(-125.74 -84.769)" fill="#ff802a"/>
      <path id="Path_81569" data-name="Path 81569" d="M302.169,803.4a9.415,9.415,0,0,0-.1-1.812c-.032-.167-.056-.309-.246-.352a.17.17,0,0,1,.129-.176,14.825,14.825,0,0,1,2.813-.328c.066,0,.1.06.132.106a9.507,9.507,0,0,0-.1,2Z" transform="translate(-103.775 -111.795)" fill="#f2b098"/>
      <path id="Path_81570" data-name="Path 81570" d="M347.371,812.848l1.082.006c-.083.561-.166,1.121-.266,1.8Z" transform="translate(-126.597 -117.865)" fill="#fdccb6"/>
      <path id="Path_81571" data-name="Path 81571" d="M305.83,734.244c.233,1.384.667,2.719,1.01,4.075.039.153.074.306.111.459-.241.194-.5.075-.735.013q-1.979-.509-3.938-1.091c-2.9-.893-5.748-1.909-8.578-2.987q-5.084-1.939-10.047-4.17c-.854-.384-1.718-.747-2.566-1.145-.917-.462-1.019-.441-1.8.212a6.079,6.079,0,0,0-2,4.81,49.364,49.364,0,0,0,1.343,11.492c.045.22.2.451,0,.677-.246-.034-.334.183-.469.31q-3.783,3.547-7.549,7.11c-.3.284-.467.311-.735-.009a9.456,9.456,0,0,0-.821-.776,15.374,15.374,0,0,1-2.257-1.977c-1.149-1.158-1.005-.836-.473-2.226,1.1-2.879,2.193-5.762,3.368-8.613.9-2.316,1.852-4.606,2.814-6.895a.879.879,0,0,1,.322-.487c.786-1.738,1.566-3.479,2.361-5.213.331-.724.717-1.423,1.042-2.149a9.941,9.941,0,0,1,6.843-5.575,27.242,27.242,0,0,1,7.934-.844c.219,0,.438,0,.657-.006l3.862.275c1.958.3,3.927.535,5.871.931l2.157.441c.218.169.164.445.26.662a98.149,98.149,0,0,0,1.934,11.7A3.443,3.443,0,0,1,305.83,734.244Z" transform="translate(-85.789 -70.966)" fill="#2a4e96"/>
      <path id="Path_81572" data-name="Path 81572" d="M220.287,716.221a63.284,63.284,0,0,1,8.24,2.252,29.021,29.021,0,0,1,4.73,2.144c.481.281.946.591,1.41.9a6.875,6.875,0,0,1,3.26,7.549c-.13.686-.234,1.376-.35,2.064a8.922,8.922,0,0,1-.572,2.948c-.422,1.61-.937,3.194-1.5,4.763a24.77,24.77,0,0,1-.933,2.4c-.207.208-.281.025-.317-.129-.379-1.639-1.186-3.121-1.713-4.705a62.97,62.97,0,0,0-3.376-7.328,9,9,0,0,0-3.732-3.427,23.846,23.846,0,0,0-2.393-1.228,62.807,62.807,0,0,0-7.627-2.972,2.062,2.062,0,0,1-.455-.146,1.72,1.72,0,0,0-2.122.321c-.255.2-.507.266-.659-.127a.329.329,0,0,1,.217-.261c.86-.353,1.635-.873,2.473-1.265.319.034.348-.34.586-.421.936-.564,1.934-1.024,2.814-1.68a4.767,4.767,0,0,0,1.419-1.338A.55.55,0,0,1,220.287,716.221Z" transform="translate(-58.867 -69.449)" fill="#2d3945"/>
      <path id="Path_81573" data-name="Path 81573" d="M294.326,697.678c.547.051.914-.3,1.34-.558A37.453,37.453,0,0,1,299,695.2a18.273,18.273,0,0,0,2.077-1.211c1.666-1.072,3.373-2.079,5.1-3.055a5.752,5.752,0,0,0,1.729-1.016.265.265,0,0,1,.315-.108c.167.075.114.234.116.367,0,.182-.225.364,0,.546.117.276-.039.507-.138.737a54.6,54.6,0,0,0-3.047,9.913,4.927,4.927,0,0,1-.28.91,1.049,1.049,0,0,1-1.008.732c-.836.108-1.646-.028-2.462.042a9.812,9.812,0,0,1-6.137-3.879A6.775,6.775,0,0,1,294.326,697.678Z" transform="translate(-100.021 -56.211)" fill="#e65e02"/>
      <path id="Path_81574" data-name="Path 81574" d="M258.643,753.811c.691-2.193,1.439-4.369,1.955-6.614.084-.364.171-.728.256-1.091.047.375.341.261.555.263,1.535.013,3.07.005,4.605.025,1.055.013,2.11.061,3.165.093q-.887,2.2-1.775,4.4c-.408,1.007-.823,2.011-1.234,3.017a.808.808,0,0,1-.173.044c-2.324.058-4.648.038-6.972.009A.538.538,0,0,1,258.643,753.811Z" transform="translate(-82.143 -84.427)" fill="#989898"/>
      <path id="Path_81575" data-name="Path 81575" d="M234.469,691.966c.657-.477,1.073.126,1.406.441,1.17,1.1,2.5,2.007,3.68,3.1.7.64,1.471,1.227,2.209,1.841a8.8,8.8,0,0,1-5.9,1.574c-.194-.019-.4.027-.57-.117-.248-2.057-.486-4.116-.89-6.151C234.363,692.424,234.274,692.177,234.469,691.966Z" transform="translate(-69.971 -57.214)" fill="#fdbe7e"/>
      <path id="Path_81576" data-name="Path 81576" d="M223.532,711.072c-.421.1-.488.54-.748.8a10.492,10.492,0,0,1-2.244,1.664c-.605.339-1.224.655-1.836.981-.105-.212.012-.389.1-.563a18.523,18.523,0,0,0,1.316-5.174c.076-.455-.107-1.006.365-1.362.047.124-.04.282.133.414a7.771,7.771,0,0,1,.129-1.382c.014-.443.271-.611.678-.454,1.175.454,2.342.928,3.513,1.395a.346.346,0,0,1,.244.309A15.122,15.122,0,0,1,223.532,711.072Z" transform="translate(-62.113 -64.301)" fill="#fdc37f"/>
      <path id="Path_81577" data-name="Path 81577" d="M308.5,698.332a.849.849,0,0,1,.795-.09c.513.1,1.01.225,1.455-.184.04-.037.124-.074.163-.056,1.078.475.941-.59,1.035-.974a76.085,76.085,0,0,1,2.293-8.05c.368-1,.8-1.988,1.2-2.98a43.193,43.193,0,0,1,3.067-5.64c-.5,1.2-1.017,2.395-1.5,3.6a57.355,57.355,0,0,0-3.207,10.4c-.206,1.089-.342,2.192-.515,3.287a4.447,4.447,0,0,1-.121.456,14.173,14.173,0,0,1-4.03.354A2.065,2.065,0,0,1,308.5,698.332Z" transform="translate(-107.121 -51.486)" fill="#c65000"/>
      <path id="Path_81578" data-name="Path 81578" d="M231.2,682.563q.4,2.51.809,5.021c.093.575-.132,1.2.271,1.733.03.04-.162.056-.253.079a5.151,5.151,0,0,1-1.566-.5.834.834,0,0,1-.1-.519,35.979,35.979,0,0,0-1.248-10.7,46.652,46.652,0,0,0-1.291-4.66C228.5,673.794,229.849,677.654,231.2,682.563Z" transform="translate(-66.7 -47.81)" fill="#fd9e67"/>
      <path id="Path_81579" data-name="Path 81579" d="M341.082,698.374c-.135-.2-.065-.447-.125-.666a83.028,83.028,0,0,1-.322-11.272,61.954,61.954,0,0,1,.771-7.94c.226-1.413.491-2.815.812-4.209.072-.315.162-.411.538-.4a19.384,19.384,0,0,0,4.717-.584c.464-.106.927-.216,1.391-.325.167.19.047.378-.014.558a45.524,45.524,0,0,0-2.087,9.715,1.051,1.051,0,0,1-.178.559c-.283.222-.44-.036-.6-.182a4.575,4.575,0,0,0-.9-.695c-.148-.078-.329-.25-.477-.063-.114.144.047.295.143.417.246.314.5.62.755.928.111.135.242.311.111.483s-.33.09-.5.021a16.04,16.04,0,0,1-1.624-.891c-.711-.4-1.221-.152-1.36.652-.042.249.131.41.288.561a10.51,10.51,0,0,0,1.784,1.3c.195.121.541.238.448.482-.109.282-.453.153-.7.1a13.807,13.807,0,0,0-1.512-.355c-.1-.011-.219-.031-.275.063-.081.133.037.219.122.3a2.59,2.59,0,0,0,.776.442,18.9,18.9,0,0,0,2.548.86c.263.068.561.073.744.329a61.21,61.21,0,0,0,.66,7.525c.066.511.122,1.023.183,1.534.1.295-.063.4-.233.185-.676-.858-1.366-.414-2.063-.08a1.42,1.42,0,0,0-.456.277,3,3,0,0,1-2.324.923c-.38.011-.668,0-.833-.376C341.256,698.443,341.2,698.37,341.082,698.374Z" transform="translate(-123.195 -47.787)" fill="#ff802a"/>
      <path id="Path_81580" data-name="Path 81580" d="M352.408,683.607c.3-2.108.572-4.219,1.056-6.3a47.332,47.332,0,0,1,1.326-4.583l.743-.247a44.157,44.157,0,0,0-2.232,9.146c-.116.848-.21,1.7-.314,2.549C352.594,684.189,352.413,683.987,352.408,683.607Z" transform="translate(-129.121 -47.539)" fill="#243743"/>
      <path id="Path_81581" data-name="Path 81581" d="M342.52,660.422l.028,1.31c-.075.969-.818,1.21-1.571,1.441q-.071-.9-.142-1.8c.023-.329-.07-.773.105-.952.155-.157.611-.016.934-.008C342.09,660.418,342.3,660.419,342.52,660.422Z" transform="translate(-123.32 -41.461)" fill="#c65000"/>
      <path id="Path_81587" data-name="Path 81587" d="M219.964,701.658l.224-.065q-.114,1.823-.228,3.646c-.241,1.362-.36,2.745-.685,4.095a10.923,10.923,0,0,1-1.094,3c-.162.141-.216.438-.527.366a.39.39,0,0,1,.048-.4,13.686,13.686,0,0,0,1.614-5.4c.245-1.535.319-3.087.479-4.631A1.091,1.091,0,0,1,219.964,701.658Z" transform="translate(-61.59 -62.125)" fill="#fdc37f"/>
      <path id="Path_81588" data-name="Path 81588" d="M218.28,676.789l-.257-.117a.574.574,0,0,1-.273-.369c-.308-.872-.572-1.758-.9-2.621a.775.775,0,0,1-.017-.408l.222-.07Q217.747,674.968,218.28,676.789Z" transform="translate(-61.184 -47.902)" fill="#fee087"/>
      <path id="Path_81589" data-name="Path 81589" d="M342.069,653.773a3.254,3.254,0,0,1-2.237,1.236,2.174,2.174,0,0,1-2.072-2.12c.008-.214.063-.282.286-.22C339.362,653.036,340.681,653.393,342.069,653.773Z" transform="translate(-121.781 -37.603)" fill="#fefefd"/>
      <path id="Path_81590" data-name="Path 81590" d="M357.412,650.233c-.688-.009-1.312-.013-1.675.667.305.029.617-.171,1.033.151a3.073,3.073,0,0,0-1.451.361c-.159.083-.264-.039-.226-.224A1.832,1.832,0,0,1,357.412,650.233Z" transform="translate(-130.462 -36.326)" fill="#cc7b6e"/>
      <path id="Path_81591" data-name="Path 81591" d="M205.291,696.932l.84.255a4.459,4.459,0,0,1,.259,1.922c.108,1.446.169,2.9.168,4.352a2.365,2.365,0,0,1-1.518,2.435c-1.294.576-2.6,1.107-3.939,1.566a1.857,1.857,0,0,0-1.382,1.406,7.348,7.348,0,0,1-.324.9.43.43,0,0,0,.313.643c1.033.308,1.944.916,2.976,1.228.171.051.358.133.342.355-.015.2-.193.292-.359.363-.356.152-.742.217-1.091.391a17.624,17.624,0,0,1-3.689.488q.317-2.056.632-4.112c.1-.667.193-1.336.288-2,.137-.317.454-.37.725-.477a39.213,39.213,0,0,0,4.889-2.231,1.921,1.921,0,0,0,1.094-1.929c-.047-1.474-.241-2.935-.291-4.407a2.327,2.327,0,0,0-.025-.883A.238.238,0,0,1,205.291,696.932Z" transform="translate(-51.704 -59.79)" fill="#fda16b"/>
      <path id="Path_81592" data-name="Path 81592" d="M190.348,669.589a35.64,35.64,0,0,1,1.252,4.442,47.546,47.546,0,0,1,.9,7.284,4.882,4.882,0,0,1-3.134-1.662,2.288,2.288,0,0,1,.251-1.667,51.8,51.8,0,0,0,.613-6.024C190.274,671.171,190.308,670.38,190.348,669.589Z" transform="translate(-47.402 -46.091)" fill="#2a4e96"/>
      <path id="Path_81593" data-name="Path 81593" d="M204.95,697.452a8.428,8.428,0,0,1,.292,2.283c.1,1.148.1,2.305.187,3.455a1.366,1.366,0,0,1-.719,1.328,22.184,22.184,0,0,1-3.72,1.877c-.8.345-1.62.657-2.431.983-.427-.058-.707.488-1.169.284C201.72,705.6,204.054,702.058,204.95,697.452Z" transform="translate(-51.455 -60.051)" fill="#015e5b"/>
      <path id="Path_81594" data-name="Path 81594" d="M187.38,680.9a9.137,9.137,0,0,1-.251,1.667,6.32,6.32,0,0,1-1.834-7.158A7.581,7.581,0,0,0,187.38,680.9Z" transform="translate(-45.167 -49.009)" fill="#fc9b65"/>
      <path id="Path_81597" data-name="Path 81597" d="M210.331,650.1a6.836,6.836,0,0,0,1.595.323,2.077,2.077,0,0,1,.909,1.349c.215,1.109-.369,1.609-1.667,1.811a8.328,8.328,0,0,1-1.311,0q.009-.939.019-1.878c.134-.407-.152-.826.036-1.235C210,650.277,210,650.008,210.331,650.1Z" transform="translate(-57.695 -36.316)" fill="#004240"/>
      <path id="Path_81598" data-name="Path 81598" d="M208.03,673.084a23.6,23.6,0,0,1,2.282,7.763,3.872,3.872,0,0,1-.648.819,38.831,38.831,0,0,0-1.395-6.39c-.277-.784-.579-1.561-.869-2.341A1.472,1.472,0,0,1,208.03,673.084Z" transform="translate(-56.47 -47.766)" fill="#fca76f"/>
      <path id="Path_81599" data-name="Path 81599" d="M216.117,676.966l-1.422-3.438,1.074-.183a34.052,34.052,0,0,1,1.195,3.4C216.723,676.976,216.371,676.784,216.117,676.966Z" transform="translate(-60.125 -47.973)" fill="#fce287"/>
      <path id="Path_81600" data-name="Path 81600" d="M200.345,646.718a9.762,9.762,0,0,1-.684,2.794,2.864,2.864,0,0,1-.742-1.255C198.6,647.221,199.249,646.52,200.345,646.718Z" transform="translate(-52.18 -34.616)" fill="#02413f"/>
      <path id="Path_81601" data-name="Path 81601" d="M210.81,643.9c1.308-.284,2.534-.529,3.749-.825.461-.112.619-.114.475.439a1.862,1.862,0,0,1-2.9,1.384A3.953,3.953,0,0,1,210.81,643.9Z" transform="translate(-58.179 -32.776)" fill="#fdfdfd"/>
      <path id="Path_81602" data-name="Path 81602" d="M206.633,647.6c-.392.065-.221.41-.286.622a7.252,7.252,0,0,0-.169.986.537.537,0,0,0-.372-.58,6.6,6.6,0,0,1-3.329-3.251c-.023-.042,0-.11,0-.28A9.071,9.071,0,0,0,206.633,647.6Z" transform="translate(-53.998 -33.819)" fill="#d98e7e"/>
      <path id="Path_81629" data-name="Path 81629" d="M1073.817,1378.15l.845,8.343a.708.708,0,0,1-.639.737l-2.973.432c-.387.056-.994-.2-1.066-.544l-1.509-8.27a.7.7,0,0,1,.647-.8l3.884-.473A.7.7,0,0,1,1073.817,1378.15Z" transform="translate(-566.313 -925.042) rotate(11)" fill="#3e3d51"/>
      <path id="Path_81603" data-name="Path 81603" d="M198.4,640.256c.369-.2.706.06,1.1.073-.191-.64-.7-.866-1.2-1.1.652-.174,1.509.788,1.671,1.338a.26.26,0,0,1-.036.215c-.086.091-.182.006-.264-.039A3.206,3.206,0,0,0,198.4,640.256Z" transform="translate(-51.914 -30.867)" fill="#c17266"/>
      <path id="Path_81604" data-name="Path 81604" d="M364.525,718.616q-4.2,1.709-8.407,3.422c-.271.111-.476.2-.554-.211-.581-3.07-1.132-6.145-1.431-9.259.144.059.222.031.219-.146a1.567,1.567,0,0,1,.034-.591c.1-.237-.018-.632.365-.678a.972.972,0,0,1,.855.337c.25.28.459.615.9.6.318-.06.454.2.632.372.9.847,1.7,1.792,2.684,2.553a5.718,5.718,0,0,0,3.8,1.354A5.946,5.946,0,0,1,364.525,718.616Z" transform="translate(-129.985 -66.911)" fill="#ff802a"/>
      <path id="Path_81605" data-name="Path 81605" d="M347.787,693.477l.579.568a3.384,3.384,0,0,0,.912.894,2.054,2.054,0,0,0-.231-1.188.976.976,0,0,1,.358-1.111c.157-.133.416-.173.391.081-.1.953.585,1.468,1.086,2.09a1.331,1.331,0,0,1,.761,1.279,21.734,21.734,0,0,1-.981,2.555c-.161.1-.316.133-.451-.042a7.639,7.639,0,0,0-1.47-.208c-.19.119-.328-.013-.476-.1l-.6-.124a16.047,16.047,0,0,1-3.779-1.258c-.324-.159-.819-.358-.683-.753.122-.354.59-.1.915-.066a11.66,11.66,0,0,0,1.865.376c-.692-.475-1.5-.448-2.1-.874a4.252,4.252,0,0,1-.762-.486c-.25-.281-.422-.581,0-.71s.163-.452.15-.765.007-.612.612-.33c.484.226,1.6.38,2.07.638.273.149.561.271.951.458-.172-.623-.646-.873-.882-1.286-.078-.136-.2-.248-.283-.381s-.171-.288-.049-.442c.141-.177.307-.113.485-.04A7.3,7.3,0,0,1,347.787,693.477Z" transform="translate(-124.5 -57.41)" fill="#f2b098"/>
      <path id="Path_81606" data-name="Path 81606" d="M373.391,719.062a21.057,21.057,0,0,1-.934-2.25,3.55,3.55,0,0,1-.587-2.359,13.459,13.459,0,0,0,5.674.811,4.611,4.611,0,0,0,4.223-3.229,29.013,29.013,0,0,1,1.059,2.845c.142.391-.123.429-.359.524q-3.54,1.434-7.08,2.868C374.724,718.541,374.057,718.8,373.391,719.062Z" transform="translate(-138.851 -67.357)" fill="#dbe8fc"/>
      <path id="Path_81607" data-name="Path 81607" d="M364.234,713.5l.587,2.359c-.027.19-.141.171-.3.164a6.171,6.171,0,0,1-3.583-1.418c-1.165-.907-2.078-2.075-3.2-3.027a8.007,8.007,0,0,1-1.151-1.443A35.857,35.857,0,0,0,364.234,713.5Z" transform="translate(-131.215 -66.406)" fill="#c65000"/>
      <path id="Path_81608" data-name="Path 81608" d="M359.372,692.232a5.062,5.062,0,0,0-.761-1.279,3.541,3.541,0,0,1,1.541-.561c.362-.113.432-.288.386-.594-.244-1.624-.282-3.273-.573-4.892a.721.721,0,0,1,.066-.429c.247.9.506,1.793.739,2.695a39.586,39.586,0,0,0,1.183,3.805c.13.35.089.446-.292.452-.553.01-1.106.105-1.659.111C359.506,691.544,359.632,692.051,359.372,692.232Z" transform="translate(-132.228 -53.55)" fill="#c65000"/>
      <path id="Path_81609" data-name="Path 81609" d="M356.829,705.054l.451.042a10.854,10.854,0,0,1-.887,2.17,9.119,9.119,0,0,1,.2-2.063C356.612,705.136,356.747,705.1,356.829,705.054Z" transform="translate(-131.117 -63.859)" fill="#c65000"/>
      <path id="Path_81610" data-name="Path 81610" d="M353.367,704.441l.476.1c-.6.266-.265.811-.368,1.226A5.31,5.31,0,0,1,353.367,704.441Z" transform="translate(-129.601 -63.552)" fill="#fe5955"/>
      <path id="Path_81611" data-name="Path 81611" d="M341.577,722.644c.188-.473.314-.168.355.051.08.427.312.458.651.329a1.216,1.216,0,0,1,.863-.066.7.7,0,0,0,.74-.25,3.816,3.816,0,0,1,2.474-1.287c.391-.022.7.04.825.495.061.228.176.186.217-.035q.525,2.8,1.043,5.6c.01.056-.068.128-.106.192-.217.134-.086.295-.034.45a23.648,23.648,0,0,1,1.024,4c.085.448.238.88.283,1.335.021.212.107.431-.05.629a1.974,1.974,0,0,1-1.179.589,22.99,22.99,0,0,0-2.6,1.119c-.242.081-.455.245-.692.345a.86.86,0,0,1-1.166-.379c-.112-.165-.1-.561-.5-.425-.44-1.468-.695-2.977-.988-4.478a77.454,77.454,0,0,1-1.172-7.976A2.005,2.005,0,0,1,341.577,722.644Z" transform="translate(-123.69 -72.057)" fill="#ff802a"/>
      <path id="Path_81612" data-name="Path 81612" d="M356.93,740.823l-1.257-5.96a19.7,19.7,0,0,1,1.156,2.72c1.139,2.753,2.248,5.519,3.366,8.282a2.521,2.521,0,0,1,.087.344c-.612-.286-1.212-.6-1.841-.849a1.045,1.045,0,0,1-.675-.879C357.5,743.258,357.211,742.042,356.93,740.823Z" transform="translate(-130.756 -78.794)" fill="#2c3945"/>
      <path id="Path_81613" data-name="Path 81613" d="M379.728,736.783c-.008-.257-.03-.515-.02-.771a.849.849,0,0,1,.482-.824.815.815,0,0,1,.914.26,6.909,6.909,0,0,1,.546.621,3.058,3.058,0,0,1,.334,1.494.925.925,0,0,1-.5.825c-.377.167-.657-.046-.921-.251A3,3,0,0,1,379.728,736.783Z" transform="translate(-142.797 -78.926)" fill="#ff802a"/>
      <path id="Path_81615" data-name="Path 81615" d="M229.727,771.337l1.794,2.16a13.563,13.563,0,0,1,1.849,2.175q1.874,2.326,3.675,4.709c.143.189.41.361.239.673-.69,1.49-1.385,2.976-2.063,4.471-.131.288-.261.305-.541.189-.767-.319-1.553-.595-2.331-.887a5.985,5.985,0,0,1-2-.638c-.339-.11-.75-.137-.967-.5-.434-.266-1.148-.2-1.327-.661-.158-.4.077-.966.149-1.457.454-3.106.905-6.212,1.373-9.316C229.623,771.948,229.486,771.61,229.727,771.337Z" transform="translate(-66.792 -97.068)" fill="#2d3945"/>
      <path id="Path_81616" data-name="Path 81616" d="M230.157,796.085l2.966,1.141c-.409.639-.45,1.422-.815,2.077a28.109,28.109,0,0,1-2.76-.971C229.732,797.578,230.044,796.859,230.157,796.085Z" transform="translate(-67.566 -109.467)" fill="#f2b199"/>
      <path id="Path_81620" data-name="Path 81620" d="M206.3,712.052l-2.077.689-1.408.26c-.059-.005-.141.012-.174-.02-.127-.125.028-.084.071-.1.407-.147.815-.288,1.221-.438.11-.04.256-.087.249-.223s-.152-.152-.271-.179a16.826,16.826,0,0,1-2.454-1.035,2.637,2.637,0,0,0-.446-.155c-.668-.136-.772-.312-.528-.933a1.256,1.256,0,0,0,.123-.271c.175-1.527,1.278-2.029,2.557-2.416a25.454,25.454,0,0,0,3.3-1.363,1.867,1.867,0,0,0,1.152-1.881,44.418,44.418,0,0,0-.232-5.293,12.237,12.237,0,0,1-.017-1.255c.279.121.669-1.1.916-.866.061.388.7-.011.733.38.027.285.526-1.379.732-1.3.8.3,1.142,1.821,1.98,1.788a66.114,66.114,0,0,1-1.453,10.307,8.086,8.086,0,0,1-1.27,2.875A16.3,16.3,0,0,1,206.3,712.052Z" transform="translate(-52.946 -60.046)" fill="#fec17f"/>
      <path id="Path_81628" data-name="Path 81628" d="M1073.817,1378.15l.845,8.343a.708.708,0,0,1-.639.737l-2.973.432c-.387.056-.994-.2-1.066-.544l-1.509-8.27a.7.7,0,0,1,.647-.8l3.884-.473A.7.7,0,0,1,1073.817,1378.15Z" transform="translate(-630.964 -928.604) rotate(11)" fill="#3e3d51"/>
      <path id="Path_81617" data-name="Path 81617" d="M289.843,756.235c-.506-2.139-.87-4.3-1.182-6.477a32.343,32.343,0,0,1-.327-5.877,6.033,6.033,0,0,1,1.883-4.6,9.741,9.741,0,0,1,.786-.636c.561-.4.961.064,1.4.289,1.265.818,2.572,1.57,3.85,2.368a79.382,79.382,0,0,0,8.421,4.247c1.243.584,2.508,1.124,3.745,1.722.211.1.544.171.328.549a8.781,8.781,0,0,1-2.509.4q-1.8.223-3.605.42c-.765.083-.765.1-.85.85a.735.735,0,0,1-.184.488,20.658,20.658,0,0,0-.322,2.9q-.756,8.068-1.464,16.14c-.032.369-.172.467-.505.486-.4.024-.79.1-1.185.155l-3.075.4c-.509-.038-1.119.369-1.484.038-.318-.287-.338-.907-.484-1.381q-1.8-5.883-3.149-11.885C289.891,756.63,289.873,756.431,289.843,756.235Z" transform="translate(-97.008 -80.611)" fill="#233862"/>
      <path id="Path_81582" data-name="Path 81582" d="M211.774,689.244l.081-.121a1.847,1.847,0,0,1,.628-.91c.311-.108.5-.559.93-.339.243.335.025.925.488,1.1a3.907,3.907,0,0,0,1.822.219c.652-.078,1.3-.182,1.959-.2.672-.023.659.025.807.7.1.456.373.088.571.038a1.016,1.016,0,0,1-.106.731c-.042.042-.117.084-.118.129a2.93,2.93,0,0,1-.587,1.351,1.189,1.189,0,0,1-.669.6,7.633,7.633,0,0,1-3.625.424c-.3-.071-.6-.119-.9-.2-.282-.11-.646-.056-.809-.4a8.162,8.162,0,0,0-.169-2.487A1.1,1.1,0,0,0,211.774,689.244Z" transform="translate(-58.661 -55.222)" fill="#f2b098"/>
      <path id="Path_81618" data-name="Path 81618" d="M314.947,758.66c.059-1.761-.222-1.322,1.4-1.555,1.928-.278,3.878-.383,5.8-.72a1.311,1.311,0,0,1,.9-.225,16.771,16.771,0,0,1,3.759-.279q2.182.585,4.363,1.169c.114.03.234.041.35.061a7.9,7.9,0,0,1,.454,1.58q-8.183,0-16.366,0C315.384,758.689,315.165,758.67,314.947,758.66Z" transform="translate(-110.352 -89.298)" fill="#989898"/>
      <path id="Path_81621" data-name="Path 81621" d="M260.96,787.879c.457.426.38.761-.094,1.155a6.144,6.144,0,0,0-1.183,1.229,20.3,20.3,0,0,1-1.879,2c-.311.195-.463.751-1,.445a22.843,22.843,0,0,1-3.772-4.37,3.462,3.462,0,0,1-.36-.753.975.975,0,0,1,1.107-1.393,3.732,3.732,0,0,1,1.313.381,14.962,14.962,0,0,1,1.642.853.49.49,0,0,0,.794-.157c.253-.381.527-.748.78-1.13a5.046,5.046,0,0,1,.389-.529.32.32,0,0,1,.551.026A13.047,13.047,0,0,1,260.96,787.879Z" transform="translate(-79.111 -104.148)" fill="#252b39"/>
      <path id="Path_81622" data-name="Path 81622" d="M260.025,799.21c.484.25.5-.379.827-.437.15-.082.266-.29.482-.131l1.2,2.61a22.393,22.393,0,0,1-2.383,1.11l-1.321-2.632A1.207,1.207,0,0,1,260.025,799.21Z" transform="translate(-82.236 -110.719)" fill="#f2b098"/>
      <path id="Path_81623" data-name="Path 81623" d="M267.588,786.789l-1.768-2.147a2.757,2.757,0,0,1,1.067-1.35L269,785.317A12.912,12.912,0,0,0,267.588,786.789Z" transform="translate(-85.739 -103.058)" fill="#f2b098"/>
      <path id="Path_81624" data-name="Path 81624" d="M263.365,796.886l-.482.131a15.5,15.5,0,0,1,1.956-1.938c.44.937.439.934-.465,1.332C264.034,796.56,263.7,796.727,263.365,796.886Z" transform="translate(-84.268 -108.963)" fill="#4c5f7f"/>
      <path id="Path_81626" data-name="Path 81626" d="M260.618,774.2c-.8-2.286-1.579-4.576-2.391-6.856a35.632,35.632,0,0,0-1.3-3.452l.854-2.347c2.3,0,4.6,0,6.9.014.209,0,.437-.081.628.082-1.172,3.026-2.328,6.058-3.532,9.071-.225.562-.246.954.285,1.3a2.34,2.34,0,0,1,.37.383,10.705,10.705,0,0,1-1.067,1.35c-.13-.131-.244-.356-.415-.025A4.207,4.207,0,0,1,260.618,774.2Z" transform="translate(-81.286 -92.158)" fill="#eff4fd"/>
      <path id="Path_81627" data-name="Path 81627" d="M317.532,747.64c-1.55.187-3.095.427-4.657.5a4.168,4.168,0,0,0-1.4-.742c-2.848-1.27-5.688-2.56-8.468-3.969a70.075,70.075,0,0,1-6.333-3.781c-.076-.049-.316-.053-.194-.271,3.536,1.554,7.062,3.13,10.662,4.533,3.208,1.251,6.431,2.459,9.724,3.476C317.094,747.46,317.311,747.556,317.532,747.64Z" transform="translate(-101.084 -81.057)" fill="#004140"/>
    </g>
  </g>
</svg>
